<svg xmlns="http://www.w3.org/2000/svg" xmlns:xlink="http://www.w3.org/1999/xlink" width="48" height="48" viewBox="0 0 48 48">
  <defs>
    <linearGradient id="linear-gradient" x1="0.154" y1="0.041" x2="0.932" y2="0.936" gradientUnits="objectBoundingBox">
      <stop offset="0" stop-color="#326efa"/>
      <stop offset="1" stop-color="#0014df"/>
    </linearGradient>
  </defs>
  <g id="对话" transform="translate(22490 3978)">
    <path id="减去_36" data-name="减去 36" d="M20.561,45.818a4.112,4.112,0,0,1-4.071-3.525H4.391A2.99,2.99,0,0,1,2.7,41.773,4.466,4.466,0,0,1,0,37.528a5.4,5.4,0,0,1,1.391-3.643V17.613a15,15,0,0,1,15-15h.338a4.114,4.114,0,0,1,7.661,0,15,15,0,0,1,14.962,15V34.194a5.454,5.454,0,0,1,1.131,3.334,4.527,4.527,0,0,1-2.033,3.91,2.988,2.988,0,0,1-2.1.855h-.611c-.106.005-.21.008-.318.008s-.211,0-.318-.008H24.631a4.113,4.113,0,0,1-4.071,3.525ZM15,21v3.82h9.552V21Z" transform="translate(-22486 -3978)" fill="url(#linear-gradient)"/>
    <rect id="矩形_2760" data-name="矩形 2760" width="48" height="48" transform="translate(-22490 -3978)" fill="none"/>
  </g>
</svg>
