<svg xmlns="http://www.w3.org/2000/svg" width="48" height="48" viewBox="0 0 48 48">
  <g id="对话" transform="translate(22490 4088)">
    <g id="组_2692" data-name="组 2692">
      <g id="组_2686" data-name="组 2686" transform="translate(-107.364 -11.182)">
        <g id="组_2248" data-name="组 2248" transform="translate(-22378.637 -4076.818)">
          <g id="交叉_1" data-name="交叉 1" transform="translate(24.672 45.818) rotate(180)" fill="none">
            <path d="M.041,4.7a4.112,4.112,0,1,1,8.183-.586,4.148,4.148,0,0,1-.041.586Z" stroke="none"/>
            <path d="M 8.181809425354004 4.697999954223633 L 0.04058985412120819 4.697999954223633 C 0.01328985579311848 4.506669998168945 -0.0009001442231237888 4.310979843139648 -0.0009001442231237888 4.112100124359131 C -0.0009001442231237888 1.840499997138977 1.840499877929688 -2.288818379270197e-08 4.111199855804443 -2.288818379270197e-08 C 6.382799625396729 -2.288818379270197e-08 8.223299980163574 1.840499997138977 8.223299980163574 4.112100124359131 C 8.223299980163574 4.310979843139648 8.209110260009766 4.506669998168945 8.181809425354004 4.697999954223633 Z" stroke="none" fill="#121c33"/>
          </g>
          <g id="交叉_2" data-name="交叉 2" transform="translate(16.448 0)" fill="none">
            <path d="M.041,4.7a4.112,4.112,0,1,1,8.183-.586,4.148,4.148,0,0,1-.041.586Z" stroke="none"/>
            <path d="M 8.181809425354004 4.697999954223633 L 0.04058985412120819 4.697999954223633 C 0.01328985579311848 4.506669998168945 -0.0009001442231237888 4.310979843139648 -0.0009001442231237888 4.112100124359131 C -0.0009001442231237888 1.840499997138977 1.840499877929688 -2.288818379270197e-08 4.111199855804443 -2.288818379270197e-08 C 6.382799625396729 -2.288818379270197e-08 8.223299980163574 1.840499997138977 8.223299980163574 4.112100124359131 C 8.223299980163574 4.310979843139648 8.209110260009766 4.506669998168945 8.181809425354004 4.697999954223633 Z" stroke="none" fill="#121c33"/>
          </g>
          <g id="联合_76" data-name="联合 76" transform="translate(0 2.613)" fill="none" stroke-linecap="round" stroke-linejoin="round">
            <path d="M35.105,39.68H4.391A2.986,2.986,0,0,1,2.7,39.16,4.48,4.48,0,0,1,0,34.916a5.4,5.4,0,0,1,1.391-3.644V15a15,15,0,0,1,15-15h7.961a15,15,0,0,1,15,15V31.581a5.42,5.42,0,0,1,1.131,3.335,4.539,4.539,0,0,1-2.034,3.909,2.991,2.991,0,0,1-2.1.856h-.611q-.158.008-.318.008T35.105,39.68Z" stroke="none"/>
            <path d="M 35.42309951782227 35.68820190429688 C 35.46100997924805 35.68820190429688 35.49948120117188 35.68722152709961 35.53741073608398 35.6852912902832 C 35.60523223876953 35.68183135986328 35.67313003540039 35.68009948730469 35.74103164672852 35.68009948730469 L 35.97794723510742 35.68009948730469 C 36.06378936767578 35.61260604858398 36.15238952636719 35.54862976074219 36.24357223510742 35.48831939697266 C 36.33922958374023 35.42505264282227 36.48380279541016 35.32942962646484 36.48380279541016 34.91550064086914 C 36.48380279541016 34.49610137939453 36.32632064819336 34.20544052124023 36.19421005249023 34.03546142578125 C 35.64866256713867 33.33352279663086 35.35250091552734 32.46984100341797 35.35250091552734 31.58083152770996 L 35.35250091552734 15.00030136108398 C 35.35250091552734 12.06198120117188 34.20828247070313 9.299560546875 32.13061141967773 7.221890926361084 C 30.05294227600098 5.14422082901001 27.2905216217041 4.000000953674316 24.35220146179199 4.000000953674316 L 16.39170074462891 4.000000953674316 C 13.45338153839111 4.000000953674316 10.69096183776855 5.14422082901001 8.61329174041748 7.221890926361084 C 6.535621166229248 9.299560546875 5.391401290893555 12.06198120117188 5.391401290893555 15.00030136108398 L 5.391401290893555 31.27188110351563 C 5.391401290893555 32.26676177978516 5.020651340484619 33.2259407043457 4.351511478424072 33.96219253540039 C 4.220231533050537 34.10663223266602 4.000001430511475 34.42255020141602 4.000001430511475 34.91550064086914 C 4.000001430511475 35.29669952392578 4.100241184234619 35.40317916870117 4.34002161026001 35.5107421875 C 4.45419454574585 35.56195449829102 4.565853118896484 35.61847686767578 4.674624919891357 35.68009948730469 L 35.10515975952148 35.68009948730469 C 35.17306137084961 35.68009948730469 35.24096298217773 35.68183135986328 35.30878067016602 35.6852912902832 C 35.34671020507813 35.68722152709961 35.38518142700195 35.68820190429688 35.42309951782227 35.68820190429688 M 35.42309951782227 39.68820190429688 C 35.31629180908203 39.68820190429688 35.21031951904297 39.68545913696289 35.10515975952148 39.68009948730469 L 4.391101360321045 39.68009948730469 C 3.765011310577393 39.68009948730469 3.18381142616272 39.48834228515625 2.702921390533447 39.16038131713867 C 1.095591425895691 38.43939208984375 1.397705091221724e-06 36.94678115844727 1.397705091221724e-06 34.91550064086914 C 1.397705091221724e-06 33.50340270996094 0.529081404209137 32.22068023681641 1.391401410102844 31.27188110351563 L 1.391401410102844 15.00030136108398 C 1.391401410102844 6.715800762176514 8.10720157623291 9.521484116703505e-07 16.39170074462891 9.521484116703505e-07 L 24.35220146179199 9.521484116703505e-07 C 32.63669967651367 9.521484116703505e-07 39.35250091552734 6.715800762176514 39.35250091552734 15.00030136108398 L 39.35250091552734 31.58083152770996 C 40.05976104736328 32.49084091186523 40.48380279541016 33.65143966674805 40.48380279541016 34.91550064086914 C 40.48380279541016 36.65044021606445 39.68471145629883 38.00806045532227 38.45027160644531 38.82456207275391 C 37.90917205810547 39.3538818359375 37.16862106323242 39.68009948730469 36.35190200805664 39.68009948730469 L 35.74103164672852 39.68009948730469 C 35.63587188720703 39.68545913696289 35.52991104125977 39.68820190429688 35.42309951782227 39.68820190429688 Z" stroke="none" fill="#121c33"/>
          </g>
        </g>
      </g>
      <rect id="矩形_2751" data-name="矩形 2751" width="3.821" height="9.551" transform="translate(-22461.449 -4067.743) rotate(90)" fill="#121c33"/>
    </g>
    <rect id="矩形_2755" data-name="矩形 2755" width="48" height="48" transform="translate(-22490 -4088)" fill="none"/>
  </g>
</svg>
