<svg xmlns="http://www.w3.org/2000/svg" width="18" height="18" viewBox="0 0 18 18">
  <defs>
    <style>
      .cls-1 {
        fill: none;
        stroke-linecap: round;
        stroke-linejoin: round;
        stroke-miterlimit: 10;
      }

      .cls-2, .cls-3 {
        stroke: none;
      }

      .cls-3 {
        fill: #121c33;
      }
    </style>
  </defs>
  <g id="收藏_默认icons" class="cls-1" transform="translate(0.9 0.9)">
    <path class="cls-2" d="M8.1,1.1l2.161,4.608,4.839.743-3.5,3.581L12.43,15.1,8.1,12.7,3.77,15.1,4.6,10.033,1.1,6.451l4.839-.743Z"/>
    <path class="cls-3" d="M 8.100000381469727 1.100000381469727 L 5.938820838928223 5.708230018615723 L 1.100000381469727 6.451220512390137 L 4.596030235290527 10.03262042999268 L 3.76969051361084 15.10000038146973 L 8.100000381469727 12.70405006408691 L 12.43031024932861 15.10000038146973 L 11.60397052764893 10.03262042999268 L 15.10000038146973 6.451220512390137 L 10.26118087768555 5.708230018615723 L 8.100000381469727 1.100000381469727 M 8.100000381469727 -0.8999996185302734 C 8.875680923461914 -0.8999996185302734 9.581399917602539 -0.4514904022216797 9.910760879516602 0.2507905960083008 L 11.61902809143066 3.89328670501709 L 15.40354061126709 4.474390029907227 C 16.14429092407227 4.588129997253418 16.75930023193359 5.106460571289063 16.99686050415039 5.81725025177002 C 17.23442077636719 6.528030395507813 17.0546703338623 7.311990737915039 16.53116989135742 7.848270416259766 L 13.74039459228516 10.70719528198242 L 14.40424060821533 14.77811050415039 C 14.52752017974854 15.53415012359619 14.20815086364746 16.294189453125 13.58183002471924 16.7352294921875 C 13.23801708221436 16.97734451293945 12.83475017547607 17.10000610351563 12.43014049530029 17.10000610351563 C 12.09768867492676 17.10000610351563 11.76437091827393 17.01726722717285 11.46205043792725 16.84999084472656 L 8.100000381469727 14.98977661132813 L 4.737950325012207 16.84999084472656 C 4.435670852661133 17.01724433898926 4.102266311645508 17.10000610351563 3.76986026763916 17.10000610351563 C 3.365205764770508 17.10000610351563 2.962021827697754 16.97737121582031 2.618170738220215 16.7352294921875 C 1.991850852966309 16.294189453125 1.672480583190918 15.53415012359619 1.795760154724121 14.77811050415039 L 2.459606170654297 10.70719528198242 L -0.3311691284179688 7.848270416259766 C -0.8546695709228516 7.311990737915039 -1.034420013427734 6.528030395507813 -0.7968597412109375 5.81725025177002 C -0.5592994689941406 5.106460571289063 0.0557098388671875 4.588129997253418 0.7964601516723633 4.474390029907227 L 4.580972671508789 3.89328670501709 L 6.289240837097168 0.2507905960083008 C 6.618600845336914 -0.4514904022216797 7.324320793151855 -0.8999996185302734 8.100000381469727 -0.8999996185302734 Z"/>
  </g>
</svg>
