<svg xmlns="http://www.w3.org/2000/svg" xmlns:xlink="http://www.w3.org/1999/xlink" width="256" height="256" viewBox="0 0 256 256">
  <defs>
    <style>
      .cls-1 {
        fill: #acacac;
      }

      .cls-2 {
        fill: #5d697e;
      }

      .cls-3 {
        fill: #827070;
      }

      .cls-4 {
        fill: url(#linear-gradient);
      }

      .cls-5 {
        fill: #8e9192;
      }

      .cls-6 {
        fill: #979797;
      }

      .cls-7 {
        fill: #c1c1c1;
      }

      .cls-8 {
        fill: #fbc395;
      }

      .cls-9 {
        fill: #233456;
      }

      .cls-10 {
        fill: #0d3a54;
      }

      .cls-11 {
        fill: #f4be92;
      }

      .cls-12 {
        fill: #929292;
        opacity: 0.6;
      }

      .cls-13 {
        fill: #753434;
      }

      .cls-14 {
        fill: url(#linear-gradient-2);
      }

      .cls-15 {
        fill: none;
      }
    </style>
    <linearGradient id="linear-gradient" x1="0.5" x2="0.5" y2="1" gradientUnits="objectBoundingBox">
      <stop offset="0" stop-color="#aaa"/>
      <stop offset="1" stop-color="#aaa"/>
    </linearGradient>
    <linearGradient id="linear-gradient-2" x1="0.5" x2="0.5" y2="1" gradientUnits="objectBoundingBox">
      <stop offset="0" stop-color="#c1c1c1"/>
      <stop offset="1" stop-color="#fff" stop-opacity="0"/>
    </linearGradient>
  </defs>
  <g id="组_1620" data-name="组 1620" transform="translate(-59 -146)">
    <g id="组_1619" data-name="组 1619" transform="translate(1 1)">
      <ellipse id="椭圆_245" data-name="椭圆 245" class="cls-1" cx="119.5" cy="6.5" rx="119.5" ry="6.5" transform="translate(67 332)"/>
      <path id="路径_1512" data-name="路径 1512" class="cls-2" d="M569.2,3532.888s17.9,6.481-3.843,7.456C567.318,3533.965,569.2,3532.888,569.2,3532.888Z" transform="translate(50.281 -3323.843) rotate(7)"/>
      <rect id="矩形_2086" data-name="矩形 2086" class="cls-3" width="1" height="59" transform="matrix(0.998, -0.07, 0.07, 0.998, 184.943, 202.075)"/>
      <path id="路径_1500" data-name="路径 1500" class="cls-4" d="M484.084,3738.181l84.562-83.2,18.183,83.317Z" transform="translate(-380 -3400.031)"/>
      <path id="路径_1501" data-name="路径 1501" class="cls-5" d="M484.084,3738.181l-17.562-82.829,85.932,82.829Z" transform="translate(-278 -3400.031)"/>
      <path id="路径_1503" data-name="路径 1503" class="cls-6" d="M507.446,3808.9l43.147-30.308-32.833,38.937Z" transform="translate(-380 -3493.031)"/>
      <path id="路径_1504" data-name="路径 1504" class="cls-6" d="M512.736,3831.955l62.113-53.364-51.292,62.947Z" transform="translate(-2200.161 -2726.55) rotate(-30)"/>
      <path id="路径_1505" data-name="路径 1505" class="cls-6" d="M512.736,3817.282l48.145-38.69-39.757,45.638Z" transform="translate(-3619.425 375.711) rotate(-83)"/>
      <path id="路径_1502" data-name="路径 1502" class="cls-7" d="M484.084,3737.808l31.323-29.952,18.3-8.095V3709.8l13.188-7.124s3.3,22.828,3.792,22.828,18.958-11.333,18.958-11.333l17.31,13.438,12.2-18.942,7.583,5.5-1.649-12.3,15,6.8-10.125-14.788,46.394,43.93Z" transform="translate(-381.158 -3399.031)"/>
      <path id="路径_1507" data-name="路径 1507" class="cls-8" d="M.725,0C-.342,0,.1,1.223.1,2.555S-.358,5.211.709,5.211s1.506-1.464,1.506-2.8S1.792,0,.725,0Z" transform="matrix(0.921, 0.391, -0.391, 0.921, 185.15, 234.197)"/>
      <path id="路径_1508" data-name="路径 1508" class="cls-9" d="M584.888,3643.161s-9.637,3.8-8.956,15.815c5.612,2.268,9.41,3.175,14.965-9.58,6.292-3.231,10.519-6.932,0-5.1C585.4,3643.218,584.888,3643.161,584.888,3643.161Z" transform="translate(-402 -3405.031)"/>
      <path id="路径_1506" data-name="路径 1506" class="cls-10" d="M2.158,0c1.546,0,.911,1.656.911,3.459s.658,3.595-.888,3.595S0,5.072,0,3.268.612,0,2.158,0Z" transform="matrix(0.921, 0.391, -0.391, 0.921, 183.886, 231.693)"/>
      <path id="路径_1510" data-name="路径 1510" class="cls-11" d="M3,0C4.657,0,6,.448,6,1s-1.395.611-3,1-1.133.265-1.24-.578S1.343,0,3,0Z" transform="translate(192.07 239.283) rotate(-25)"/>
      <path id="路径_1511" data-name="路径 1511" class="cls-11" d="M3,0C4.657,0,6,.448,6,1s-1.395.611-3,1-1.133.265-1.24-.578S1.343,0,3,0Z" transform="translate(178.052 244.793) rotate(60)"/>
      <path id="路径_1509" data-name="路径 1509" class="cls-2" d="M574.975,3658.218s-.483,8.72,1.349,15.653c-2.18,2.965-5.149,6.5-5.149,6.5s-2.657,9.023,9.335-7.416c1.033-12.105,15.478-9.523,5.058-13.91C581.512,3659.743,574.975,3658.218,574.975,3658.218Z" transform="translate(-401 -3407.031)"/>
      <path id="路径_1514" data-name="路径 1514" class="cls-7" d="M835.211,4245.691s-3.348-3.261-10.421,3.327c-4.674,2.742-6.318.2-8.1.261-6.256-.336-4.914,6.2-11.177,2.935-2.808-.065-3.564.392-3.564.392s4.266,2.152,4.914,4.761c.972,1.109,2.322,2.218,5.886,2.218,2.16.065,4.1.653,6.318,4.175,1.35,1.7,2.268,3.131,9.233,3.131a67.923,67.923,0,0,1,6.912,2.437Z" transform="matrix(0.998, -0.07, 0.07, 0.998, -943.278, -3975.282)"/>
      <path id="路径_1515" data-name="路径 1515" class="cls-12" d="M3.584-11.524h.684v4.311H5.3v.6H4.268v1.44H3.575v-1.44H.384V-7.31Zm-.036.951L1-7.212H3.575v-3.36Zm4.622-1.076a1.862,1.862,0,0,1,1.716,1,4.475,4.475,0,0,1,.507,2.293,4.475,4.475,0,0,1-.507,2.293,1.875,1.875,0,0,1-1.716,1,1.862,1.862,0,0,1-1.716-1A4.475,4.475,0,0,1,5.948-8.35a4.475,4.475,0,0,1,.507-2.293A1.85,1.85,0,0,1,8.171-11.648Zm0,.622a1.273,1.273,0,0,0-1.227.916,4.694,4.694,0,0,0-.267,1.76,4.779,4.779,0,0,0,.267,1.76,1.273,1.273,0,0,0,1.227.916A1.273,1.273,0,0,0,9.4-6.59a4.724,4.724,0,0,0,.276-1.76A4.64,4.64,0,0,0,9.4-10.11,1.273,1.273,0,0,0,8.171-11.026Zm6.08-.5h.684v4.311h1.031v.6H14.935v1.44h-.693v-1.44H11.051V-7.31Zm-.036.951-2.551,3.36h2.578v-3.36Z" transform="matrix(0.996, 0.087, -0.087, 0.996, 167.162, 220.554)"/>
      <g id="组_1618" data-name="组 1618" transform="translate(-403 -3402.031)">
        <rect id="矩形_2089" data-name="矩形 2089" class="cls-13" width="6" height="3" transform="translate(596.279 3637)"/>
        <rect id="矩形_2093" data-name="矩形 2093" class="cls-13" width="1" height="5" transform="translate(602.279 3636)"/>
        <rect id="矩形_2090" data-name="矩形 2090" class="cls-13" width="8" height="1" transform="translate(591.919 3638)"/>
        <rect id="矩形_2092" data-name="矩形 2092" class="cls-13" width="3" height="1" transform="translate(590 3638)"/>
        <rect id="矩形_2091" data-name="矩形 2091" class="cls-13" width="1" height="3" transform="translate(592.046 3637)"/>
      </g>
      <path id="联合_58" data-name="联合 58" class="cls-14" d="M10.253,10.994q-.239-.011-.472-.041A5.5,5.5,0,1,1,5.5,2a5.549,5.549,0,0,1,.72.047,5.5,5.5,0,0,1,8.528-.041,5.5,5.5,0,1,1-4.495,8.989Z" transform="translate(100 261.969)"/>
      <path id="联合_59" data-name="联合 59" class="cls-14" d="M12.6,13.514q-.294-.013-.58-.051a6.76,6.76,0,1,1-5.262-11,6.821,6.821,0,0,1,.885.057,6.761,6.761,0,0,1,10.482-.051A6.76,6.76,0,1,1,12.6,13.514Z" transform="translate(232 238.969)"/>
    </g>
    <rect id="矩形_2094" data-name="矩形 2094" class="cls-15" width="256" height="256" transform="translate(59 146)"/>
  </g>
</svg>
