<?xml version="1.0" standalone="no"?><!DOCTYPE svg PUBLIC "-//W3C//DTD SVG 1.1//EN" "http://www.w3.org/Graphics/SVG/1.1/DTD/svg11.dtd"><svg t="1552728412413" class="icon" style="" viewBox="0 0 1024 1024" version="1.1" xmlns="http://www.w3.org/2000/svg" p-id="3249" xmlns:xlink="http://www.w3.org/1999/xlink" width="200" height="200"><defs><style type="text/css"></style></defs><path d="M790.746453 343.450965c88.379392 0 159.984299-70.623232 159.984299-157.727402 0-0.550229-0.187051-1.163264-0.187051-1.712128 0-0.671744 0.187051-1.211051 0.187051-1.765376C950.730752 95.141888 879.125845 24.576 790.746453 24.576c-88.324779 0-159.931051 70.571349-159.93105 157.670059 0 0.735915 0.117419 1.279317 0.117418 2.011136 0 0.554325-0.117419 1.039019-0.117418 1.466368 0 12.378112 2.005675 24.218283 4.881066 35.680256L343.28576 411.702613c-28.91776-28.112213-68.560213-45.505195-112.283648-45.505194C142.60224 366.197419 70.997333 436.779691 70.997333 523.8784c0 0.607573 0.170667 1.161899 0.170667 1.770837 0 0.613035-0.170667 1.16736-0.170667 1.701206 0 87.098709 71.604907 157.732864 160.004779 157.732864 47.136768 0 89.104384-20.544171 118.379861-52.506624l281.737899 204.14464c-0.133803 0.857429-0.24576 1.642496-0.24576 2.554538 0 0.554325 0.170667 1.161899 0.170667 1.716224-0.058709 0.608939-0.170667 1.221973-0.170667 1.770838 0 87.087787 71.606272 157.664597 159.931051 157.664597 88.379392 0 159.984299-70.576811 159.984298-157.664597 0-0.607573-0.192512-1.215147-0.192512-1.770838 0-0.554325 0.192512-1.220608 0.192512-1.716224 0-87.098709-71.604907-157.734229-159.984298-157.734229-57.22112 0-107.061248 29.883051-135.285419 74.427051L386.646016 561.2544c2.516309-10.960896 4.265301-22.127957 4.265301-33.850709 0-0.533845-0.111957-1.029461-0.111957-1.520982 0-0.671744 0.111957-1.279317 0.111957-1.9456 0-14.267733-2.666496-27.871915-6.399317-40.987306l290.388651-189.023574c29.104811 30.314496 70.101675 49.524736 115.845802 49.524736z m0 0" p-id="3250" fill="#ffffff"></path></svg>