<svg xmlns="http://www.w3.org/2000/svg" width="28.818" height="28.818" viewBox="0 0 28.818 28.818">
  <defs>
    <style>
      .cls-1, .cls-3 {
        fill: #dfeafc;
      }

      .cls-1 {
        stroke-linecap: round;
        stroke-linejoin: round;
        stroke-miterlimit: 10;
      }

      .cls-2, .cls-3 {
        stroke: none;
      }
    </style>
  </defs>
  <g id="收藏_默认icons" class="cls-1" transform="translate(0.9 0.9)">
    <path class="cls-2" d="M 22.503662109375 27.79007148742676 L 20.70099258422852 26.79265213012695 L 13.50883197784424 22.8132495880127 L 6.316671848297119 26.79265213012695 L 4.514001846313477 27.79007148742676 L 4.845582008361816 25.75672149658203 L 6.229165554046631 17.27205467224121 L 0.3844219744205475 11.28459167480469 L -0.9741680026054382 9.892831802368164 L 0.9482319951057434 9.597641944885254 L 8.998798370361328 8.361485481262207 L 12.6034517288208 0.6753919720649719 L 13.50883197784424 -1.255118012428284 L 14.41421222686768 0.6753919720649719 L 18.01885604858398 8.361485481262207 L 26.06943130493164 9.597641944885254 L 27.9918327331543 9.892831802368164 L 26.63324165344238 11.28459167480469 L 20.78849792480469 17.27205467224121 L 22.17208290100098 25.75672149658203 L 22.503662109375 27.79007148742676 Z"/>
    <path class="cls-3" d="M 13.50883197784424 1.100002288818359 L 9.677722930908203 9.268962860107422 L 1.100002288818359 10.58606147766113 L 7.297372817993164 16.93476104736328 L 5.832542419433594 25.91766166687012 L 13.50883197784424 21.67039108276367 L 21.18512153625488 25.91766166687012 L 19.72029113769531 16.93476104736328 L 25.91766166687012 10.58606147766113 L 17.33993148803711 9.268962860107422 L 13.50883197784424 1.100002288818359 M 13.50883197784424 -0.8999977111816406 C 14.28451156616211 -0.8999977111816406 14.99023151397705 -0.4514884948730469 15.3195915222168 0.2507915496826172 L 18.69778060913086 7.454019546508789 L 26.2212028503418 8.609231948852539 C 26.96196174621582 8.722972869873047 27.57696151733398 9.241302490234375 27.81452178955078 9.952091217041016 C 28.05208206176758 10.66288185119629 27.8723316192627 11.44683170318604 27.34883117675781 11.98311233520508 L 21.85671424865723 17.60933876037598 L 23.1590518951416 25.59577178955078 C 23.2823314666748 26.3518123626709 22.96296310424805 27.11185264587402 22.33664131164551 27.55289268493652 C 21.99282836914063 27.79500579833984 21.58956146240234 27.91766738891602 21.18495178222656 27.91766738891602 C 20.85250091552734 27.91766738891602 20.5191822052002 27.83492851257324 20.21686172485352 27.66765213012695 L 13.50883197784424 23.95611763000488 L 6.800802230834961 27.66765213012695 C 6.49852180480957 27.83490562438965 6.165119171142578 27.91766738891602 5.832712173461914 27.91766738891602 C 5.428056716918945 27.91766738891602 5.024873733520508 27.7950325012207 4.681022644042969 27.55289268493652 C 4.054702758789063 27.11185264587402 3.735332489013672 26.3518123626709 3.858612060546875 25.59577178955078 L 5.16094970703125 17.60933876037598 L -0.3311672210693359 11.98311233520508 C -0.8546676635742188 11.44683170318604 -1.034418106079102 10.66288185119629 -0.7968578338623047 9.952091217041016 C -0.5592975616455078 9.241302490234375 0.05570220947265625 8.722972869873047 0.7964611053466797 8.609231948852539 L 8.319873809814453 7.454019546508789 L 11.69807243347168 0.2507915496826172 C 12.02743244171143 -0.4514884948730469 12.73316192626953 -0.8999977111816406 13.50883197784424 -0.8999977111816406 Z"/>
  </g>
</svg>
