<svg xmlns="http://www.w3.org/2000/svg" xmlns:xlink="http://www.w3.org/1999/xlink" width="218" height="218" viewBox="0 0 218 218">
  <defs>
    <style>
      .cls-1 {
        fill: #e6ebff;
      }

      .cls-2 {
        fill: url(#linear-gradient);
      }

      .cls-3 {
        fill: #050a0d;
      }

      .cls-4 {
        fill: #4060a0;
      }

      .cls-5 {
        fill: #fedcbf;
      }

      .cls-6 {
        fill: #fedcc0;
      }

      .cls-7 {
        fill: url(#linear-gradient-2);
      }

      .cls-8 {
        fill: #414140;
      }

      .cls-9 {
        fill: url(#linear-gradient-3);
      }

      .cls-10 {
        fill: #95abea;
      }

      .cls-11 {
        fill: #90a7ea;
      }

      .cls-12 {
        fill: url(#linear-gradient-4);
      }

      .cls-13 {
        fill: #fff;
      }

      .cls-14 {
        fill: #b5c0f6;
      }

      .cls-15 {
        fill: #e7eafd;
      }

      .cls-16 {
        fill: url(#linear-gradient-5);
      }

      .cls-17 {
        fill: #b5c1f8;
      }

      .cls-18 {
        fill: url(#linear-gradient-15);
      }

      .cls-19 {
        fill: none;
      }
    </style>
    <linearGradient id="linear-gradient" x1="0.5" x2="0.5" y2="1" gradientUnits="objectBoundingBox">
      <stop offset="0" stop-color="#f3f6fe"/>
      <stop offset="1" stop-color="#f3f6fe"/>
    </linearGradient>
    <linearGradient id="linear-gradient-2" x1="0.5" x2="0.5" y2="1" gradientUnits="objectBoundingBox">
      <stop offset="0" stop-color="#8fa6ea"/>
      <stop offset="1" stop-color="#b3c6eb"/>
    </linearGradient>
    <linearGradient id="linear-gradient-3" x1="0.5" x2="0.5" y2="1" gradientUnits="objectBoundingBox">
      <stop offset="0" stop-color="#4060a0"/>
      <stop offset="1" stop-color="#4060a0"/>
    </linearGradient>
    <linearGradient id="linear-gradient-4" x1="0.5" x2="0.5" y2="1" gradientUnits="objectBoundingBox">
      <stop offset="0" stop-color="#eac3d8"/>
      <stop offset="1" stop-color="#b0a5db"/>
    </linearGradient>
    <linearGradient id="linear-gradient-5" x1="0.5" x2="0.5" y2="1" gradientUnits="objectBoundingBox">
      <stop offset="0" stop-color="#9295d9"/>
      <stop offset="1" stop-color="#0c42d4"/>
    </linearGradient>
    <linearGradient id="linear-gradient-15" x1="0.5" x2="0.5" y2="1" gradientUnits="objectBoundingBox">
      <stop offset="0" stop-color="#4981f7"/>
      <stop offset="1" stop-color="#b9a2cc"/>
    </linearGradient>
  </defs>
  <g id="组_1626" data-name="组 1626" transform="translate(-72 -144)">
    <g id="组_1625" data-name="组 1625">
      <path id="路径_1549" data-name="路径 1549" class="cls-1" d="M1036.09,3776.982c-2.32,1.678-15,8.08-35.548,1.977-22.369,4.272-46.139-2.893-36.861-7.622,13.256-3.661,56.412-10.44,76.13-.828S1038.41,3775.3,1036.09,3776.982Z" transform="translate(-792 -3428)"/>
      <path id="路径_1536" data-name="路径 1536" class="cls-2" d="M1047.153,3793.326c14.043,25.14,68.4,4.755,76.795-44.807.8-26.779-14.389-21.184-37.571-28.378-12.79-5.2-23.982-12.79-36.772-53.159-9.124-23.3-38.77-18.786-58.755,7.194-17.586,6-93.528,7.595-49.562,59.555,14.389,29.177,3.6,34.374,45.165,29.977C1006.438,3764.906,1026.422,3742.124,1047.153,3793.326Z" transform="translate(-844 -3473.59)"/>
      <path id="路径_1530" data-name="路径 1530" class="cls-3" d="M1153.426,4315.581a4.5,4.5,0,0,1,.157,2.9c.357,1.75-1.555,2.835-4.733,3.844-3.2.5-8.712,1.232,1.056-6.747C1152.81,4313.908,1153.426,4315.581,1153.426,4315.581Z" transform="translate(-923.89 -3974.801)"/>
      <path id="路径_1531" data-name="路径 1531" class="cls-3" d="M1153.469,4314.562a8,8,0,0,1,0,3.483c.357,1.75-1.555,2.835-4.733,3.844-3.2.5-8.712,1.232,1.056-6.747C1152.7,4313.47,1153.469,4314.562,1153.469,4314.562Z" transform="translate(-929.228 -3977.653)"/>
      <path id="路径_1529" data-name="路径 1529" class="cls-4" d="M1154.887,4184.109s-.347,31.777-2.727,39.164a2.09,2.09,0,0,1-3.867.446c-1.425-7.349-2.132-25.084-1.834-29.843-.694,0-3.916,7.238-.595,21.813,1.669,4.222-.991,6.256-2.33,4.362-2.181-3.916-6.593-14.376-6.692-16.9,0-2.627,1.239-20.474,1.239-20.474Z" transform="translate(-922.474 -3881.579)"/>
      <path id="路径_1528" data-name="路径 1528" class="cls-5" d="M1145.591,4130.165s-2.479,4.423-4.8,1.945c-2.135-2.631-4.157-5.034-4.157-5.034s.953-2.936-5.033-3.279c-.61.725-.343,1.792,2.288,4.385,1.068.991,9.381,18,15.253,5.377C1145.583,4130.221,1145.591,4130.165,1145.591,4130.165Z" transform="translate(-931.18 -3851.089)"/>
      <path id="路径_1527" data-name="路径 1527" class="cls-6" d="M1061.622,4146.329c.117.117,7.157,6.453-4.869,17.16-1.349-1.73-1.555-3.667-.821-4.078s4.664-6.424.821-9.8C1061.5,4146.329,1061.622,4146.329,1061.622,4146.329Z" transform="translate(-824.775 -3866.581)"/>
      <path id="路径_1525" data-name="路径 1525" class="cls-7" d="M1079.837,4146.452c1.586-1.14-.942-2.677-.942-19.482.892-.347,8.08-2.578,5.4-6.2-2.479-3.272-5.949-9.617-19.185-4.809-1.933.5-9.667,5.205-1.438,11.005.049.793.446.248,0,3.123-.446,3.123-1.181,11.788-2.776,15.219S1069.08,4151.063,1079.837,4146.452Z" transform="translate(-846.925 -3842.885)"/>
      <path id="路径_1533" data-name="路径 1533" class="cls-5" d="M6.352,0C9.857,0,12.7,2.024,12.7,4.52S9.857,9.04,6.352,9.04-.141,6.117.005,4.52,2.847,0,6.352,0Z" transform="matrix(0.375, -0.927, 0.927, 0.375, 217.459, 269.145)"/>
      <path id="路径_1524" data-name="路径 1524" class="cls-8" d="M1091.663,4077.13c-.785,1.97,4.9-3.124,2.451-7.575-.872-1.382-6.844-3.673-9.256,2.236.349.706,4.439-2.784,5.632,1.5C1092.475,4073.671,1093.087,4074.659,1091.663,4077.13Z" transform="translate(-864.68 -3809.4)"/>
      <path id="路径_1526" data-name="路径 1526" class="cls-5" d="M1.8,0A1.8,1.8,0,0,0,0,1.8V4.488c0,.991.728,1.063,1.719,1.063S3.59,5.479,3.59,4.488V1.8A1.8,1.8,0,0,0,1.8,0Z" transform="translate(223.432 267.084)"/>
      <path id="路径_1532" data-name="路径 1532" class="cls-9" d="M1232.767,4075.7s4.723-1.379,3.168-3.872-3.517-6.679-5.72-5.28-4.048.587,1.408,8.624C1231.916,4075.7,1232.767,4075.7,1232.767,4075.7Z" transform="translate(-1029.577 -3799.705)"/>
      <circle id="椭圆_247" data-name="椭圆 247" class="cls-10" cx="0.598" cy="0.598" r="0.598" transform="translate(203.993 273.666)"/>
      <rect id="矩形_2097" data-name="矩形 2097" class="cls-11" width="0.461" height="1.144" rx="0.231" transform="translate(200.031 268.324) rotate(-121)"/>
      <path id="路径_1516" data-name="路径 1516" class="cls-12" d="M8,0,71.862-2.75a8,8,0,0,1,8,8V69.657c0,4.418-3.361,6.582-8,8L8,102c-7.148,2.032-8-3.582-8-8V8A8,8,0,0,1,8,0Z" transform="translate(116 212)"/>
      <g id="组_1622" data-name="组 1622" transform="translate(-78 40)">
        <path id="路径_1534" data-name="路径 1534" class="cls-13" d="M6.755-.428,60.676-2.75a6.755,6.755,0,0,1,6.755,6.755V58.386c0,3.731-2.819,5.688-6.755,6.755L6.755,85.695C1.109,86.851,0,82.671,0,78.94V6.327A6.755,6.755,0,0,1,6.755-.428Z" transform="translate(201.216 179.153)"/>
        <path id="路径_1535" data-name="路径 1535" class="cls-14" d="M6.838-.579,61.021-2.613c3.314,0,6.713,2.831,6.713,6.145V7.484L.219,11.971V6A7.076,7.076,0,0,1,6.838-.579Z" transform="translate(201 179)"/>
        <g id="组_1621" data-name="组 1621" transform="translate(93.937 -266.497)">
          <path id="路径_1518" data-name="路径 1518" class="cls-15" d="M7.4,0c4.088,0,7.4,4.606,7.4,10.287S11.489,20.575,7.4,20.575,0,15.969,0,10.287,3.314,0,7.4,0Z" transform="matrix(0.996, 0.087, -0.087, 0.996, 119.406, 480.032)"/>
          <ellipse id="椭圆_248" data-name="椭圆 248" class="cls-13" cx="1" cy="1.5" rx="1" ry="1.5" transform="translate(122.063 490.497)"/>
          <ellipse id="椭圆_249" data-name="椭圆 249" class="cls-13" cx="1" cy="1.5" rx="1" ry="1.5" transform="translate(125.063 489.497)"/>
          <ellipse id="椭圆_250" data-name="椭圆 250" class="cls-13" cx="1" cy="1.5" rx="1" ry="1.5" transform="translate(128.063 488.497)"/>
        </g>
        <rect id="矩形_2098" data-name="矩形 2098" class="cls-14" width="9" height="1" rx="0.5" transform="translate(229.171 217.776) rotate(-11)"/>
        <rect id="矩形_2099" data-name="矩形 2099" class="cls-14" width="22" height="1" rx="0.5" transform="translate(240.171 215.776) rotate(-11)"/>
        <rect id="矩形_2100" data-name="矩形 2100" class="cls-14" width="32" height="1" rx="0.5" transform="matrix(0.978, -0.208, 0.208, 0.978, 231.027, 225.07)"/>
      </g>
      <g id="组_1623" data-name="组 1623" transform="translate(-948 -3977.609)">
        <path id="路径_1539" data-name="路径 1539" class="cls-16" d="M986.437,4369.078s4.582-6.578,7.538-4.36,2.245,1.41,2.66,2-1.256,7.02-9.459,4.286A1.74,1.74,0,0,1,986.437,4369.078Z" transform="translate(55.992 -58.955)"/>
        <path id="路径_1542" data-name="路径 1542" class="cls-16" d="M986.425,4368.074s3.627-5.207,5.967-3.452,1.777,1.116,2.106,1.58-.995,5.558-7.489,3.393A1.379,1.379,0,0,1,986.425,4368.074Z" transform="translate(57.078 -66.868)"/>
        <path id="路径_1544" data-name="路径 1544" class="cls-16" d="M986.413,4367.15s2.748-3.945,4.521-2.615,1.346.845,1.6,1.2-.754,4.21-5.674,2.57A1.044,1.044,0,0,1,986.413,4367.15Z" transform="translate(57.844 -74.806)"/>
        <path id="路径_1546" data-name="路径 1546" class="cls-16" d="M986.406,4366.582s2.207-3.168,3.631-2.1,1.081.679,1.282.961-.605,3.382-4.557,2.065A.839.839,0,0,1,986.406,4366.582Z" transform="translate(59.054 -81.486)"/>
        <path id="路径_1548" data-name="路径 1548" class="cls-16" d="M986.4,4365.965s1.621-2.327,2.666-1.542.794.5.941.707-.444,2.483-3.346,1.516A.616.616,0,0,1,986.4,4365.965Z" transform="translate(60.937 -87.463)"/>
        <path id="路径_1540" data-name="路径 1540" class="cls-16" d="M9.59,10.345S9.859-1.9,2.391.254s4.844,9.856,5.886,10.091S9.59,10.345,9.59,10.345Z" transform="translate(1029.309 4303.146) rotate(-16)"/>
        <path id="路径_1541" data-name="路径 1541" class="cls-16" d="M7.592,8.19S7.8-1.5,1.893.2,5.728,8,6.553,8.19,7.592,8.19,7.592,8.19Z" transform="translate(1033.116 4295.683) rotate(-16)"/>
        <path id="路径_1543" data-name="路径 1543" class="cls-16" d="M5.752,6.2S5.913-1.139,1.434.152,4.34,6.064,4.965,6.2,5.752,6.2,5.752,6.2Z" transform="translate(1036.388 4288.159) rotate(-16)"/>
        <path id="路径_1545" data-name="路径 1545" class="cls-16" d="M4.62,4.983s.13-5.9-3.468-4.861S3.485,4.87,3.988,4.983,4.62,4.983,4.62,4.983Z" transform="translate(1039.141 4281.735) rotate(-16)"/>
        <path id="路径_1547" data-name="路径 1547" class="cls-16" d="M3.392,3.659S3.487-.672.846.09,2.559,3.576,2.928,3.659,3.392,3.659,3.392,3.659Z" transform="translate(1042.695 4276.033) rotate(-16)"/>
        <path id="路径_1538" data-name="路径 1538" class="cls-17" d="M976.212,4325.289s-2.365,2.291-2.587-1.4c.37-4.507,5.395-45.67,9.755-51.286,1.848-.739-1.109,3.695-1.922,9.089S976.212,4325.289,976.212,4325.289Z" transform="translate(64.712 2)"/>
      </g>
      <g id="组_1624" data-name="组 1624" transform="translate(-925 -3957.409)">
        <path id="路径_1539-2" data-name="路径 1539" class="cls-18" d="M986.415,4367.259s2.851-4.093,4.69-2.713,1.4.877,1.655,1.242-.782,4.368-5.886,2.667A1.083,1.083,0,0,1,986.415,4367.259Z" transform="translate(51.058 -70.586)"/>
        <path id="路径_1542-2" data-name="路径 1542" class="cls-18" d="M986.407,4366.634s2.257-3.24,3.713-2.147,1.106.694,1.311.983-.619,3.458-4.66,2.111A.858.858,0,0,1,986.407,4366.634Z" transform="translate(51.734 -75.51)"/>
        <path id="路径_1544-2" data-name="路径 1544" class="cls-18" d="M986.4,4366.059s1.71-2.455,2.813-1.627.838.526.993.745-.469,2.62-3.53,1.6A.651.651,0,0,1,986.4,4366.059Z" transform="translate(52.21 -80.449)"/>
        <path id="路径_1546-2" data-name="路径 1546" class="cls-18" d="M986.4,4365.705s1.373-1.972,2.259-1.307.673.422.8.6-.377,2.1-2.835,1.285A.522.522,0,0,1,986.4,4365.705Z" transform="translate(52.963 -84.605)"/>
        <path id="路径_1548-2" data-name="路径 1548" class="cls-18" d="M986.391,4365.321s1.008-1.448,1.659-.96.494.311.586.44-.276,1.545-2.082.943A.383.383,0,0,1,986.391,4365.321Z" transform="translate(54.135 -88.325)"/>
        <path id="路径_1540-2" data-name="路径 1540" class="cls-18" d="M5.967,6.437S6.134-1.181,1.488.158,4.5,6.29,5.151,6.437,5.967,6.437,5.967,6.437Z" transform="translate(1029.309 4292.332) rotate(-16)"/>
        <path id="路径_1541-2" data-name="路径 1541" class="cls-18" d="M4.724,5.1S4.856-.935,1.178.125,3.564,4.98,4.078,5.1,4.724,5.1,4.724,5.1Z" transform="translate(1031.678 4287.688) rotate(-16)"/>
        <path id="路径_1543-2" data-name="路径 1543" class="cls-18" d="M3.579,3.861S3.679-.709.893.095,2.7,3.773,3.089,3.861,3.579,3.861,3.579,3.861Z" transform="translate(1033.714 4283.006) rotate(-16)"/>
        <path id="路径_1545-2" data-name="路径 1545" class="cls-18" d="M2.874,3.1S2.955-.569.717.076,2.169,3.03,2.481,3.1,2.874,3.1,2.874,3.1Z" transform="translate(1035.426 4279.008) rotate(-16)"/>
        <path id="路径_1547-2" data-name="路径 1547" class="cls-18" d="M2.111,2.277S2.17-.418.526.056s1.066,2.169,1.3,2.221S2.111,2.277,2.111,2.277Z" transform="translate(1037.638 4275.46) rotate(-16)"/>
        <path id="路径_1538-2" data-name="路径 1538" class="cls-17" d="M975.235,4305.354s-1.472,1.425-1.609-.874c.23-2.8,3.357-28.417,6.07-31.912,1.15-.46-.69,2.3-1.2,5.655S975.235,4305.354,975.235,4305.354Z" transform="translate(61.301 2)"/>
      </g>
    </g>
    <rect id="矩形_2101" data-name="矩形 2101" class="cls-19" width="218" height="218" transform="translate(72 144)"/>
  </g>
</svg>
