<svg xmlns="http://www.w3.org/2000/svg" width="14" height="14" viewBox="0 0 14 14">
  <defs>
    <style>
      .cls-1 {
        opacity: 0.6;
      }

      .cls-2 {
        fill: #fff;
      }

      .cls-3 {
        fill: #2a9f93;
      }

      .cls-4 {
        fill: none;
      }
    </style>
  </defs>
  <g id="组_1450" data-name="组 1450" transform="translate(-263 -630)">
    <g id="组_1449" data-name="组 1449">
      <g id="组_1447" data-name="组 1447" class="cls-1" transform="translate(263.7 630)">
        <circle id="椭圆_206" data-name="椭圆 206" class="cls-2" cx="2.8" cy="2.8" r="2.8" transform="translate(2.8)"/>
        <path id="矩形_1815" data-name="矩形 1815" class="cls-2" d="M5.6,0h0a5.6,5.6,0,0,1,5.6,5.6V8.4a0,0,0,0,1,0,0H0a0,0,0,0,1,0,0V5.6A5.6,5.6,0,0,1,5.6,0Z" transform="translate(0 5.6)"/>
      </g>
      <g id="组_1448" data-name="组 1448" transform="translate(270 637)">
        <circle id="椭圆_207" data-name="椭圆 207" class="cls-2" cx="3.5" cy="3.5" r="3.5"/>
        <g id="组_1446" data-name="组 1446" class="cls-1" transform="translate(1.4 1.4)">
          <rect id="矩形_1817" data-name="矩形 1817" class="cls-3" width="4.2" height="0.7" rx="0.35" transform="translate(0 1.75)"/>
          <rect id="矩形_1818" data-name="矩形 1818" class="cls-3" width="4.2" height="0.7" rx="0.35" transform="translate(2.45) rotate(90)"/>
        </g>
      </g>
    </g>
    <rect id="矩形_1819" data-name="矩形 1819" class="cls-4" width="14" height="14" transform="translate(263 630)"/>
  </g>
</svg>
