<svg xmlns="http://www.w3.org/2000/svg" width="14" height="14" viewBox="0 0 14 14">
  <defs>
    <style>
      .cls-1, .cls-2, .cls-4 {
        fill: none;
      }

      .cls-2, .cls-4 {
        stroke: #121c33;
      }

      .cls-2 {
        stroke-linecap: round;
        stroke-linejoin: round;
      }

      .cls-3 {
        fill: #121c33;
      }

      .cls-5 {
        stroke: none;
      }
    </style>
  </defs>
  <g id="组_2485" data-name="组 2485" transform="translate(-148 -654)">
    <rect id="矩形_2567" data-name="矩形 2567" class="cls-1" width="14" height="14" transform="translate(148 654)"/>
    <g id="组_2484" data-name="组 2484" transform="translate(2 1)">
      <path id="路径_828" data-name="路径 828" class="cls-2" d="M553.047,1815.632v8h8v-8" transform="translate(-403.547 -1157.564)"/>
      <rect id="矩形_2563" data-name="矩形 2563" class="cls-3" width="11" height="1" rx="0.5" transform="translate(148 656)"/>
      <g id="矩形_2564" data-name="矩形 2564" class="cls-4" transform="translate(150 654)">
        <path class="cls-5" d="M3,0H4A3,3,0,0,1,7,3V3A0,0,0,0,1,7,3H0A0,0,0,0,1,0,3V3A3,3,0,0,1,3,0Z"/>
        <path class="cls-1" d="M2.483.5H4.517A1.983,1.983,0,0,1,6.5,2.483v0a.017.017,0,0,1-.017.017H.517A.017.017,0,0,1,.5,2.483v0A1.983,1.983,0,0,1,2.483.5Z"/>
      </g>
      <g id="组_2483" data-name="组 2483" transform="translate(1 1)">
        <rect id="矩形_2565" data-name="矩形 2565" class="cls-3" width="5" height="1" rx="0.5" transform="translate(152 658) rotate(90)"/>
        <rect id="矩形_2566" data-name="矩形 2566" class="cls-3" width="5" height="1" rx="0.5" transform="translate(154 658) rotate(90)"/>
      </g>
    </g>
  </g>
</svg>
