<svg xmlns="http://www.w3.org/2000/svg" width="46" height="46" viewBox="0 0 46 46">
  <defs>
    <style>
      .cls-1 {
        fill: #dfeafc;
        opacity: 0.9;
      }

      .cls-2 {
        fill: #387be6;
      }
    </style>
  </defs>
  <g id="组_2416" data-name="组 2416" transform="translate(-311 -1232)">
    <circle id="椭圆_309" data-name="椭圆 309" class="cls-1" cx="23" cy="23" r="23" transform="translate(311 1232)"/>
    <g id="组_2415" data-name="组 2415" transform="translate(4552 8078.516)">
      <path id="union" class="cls-2" d="M8.587,18.985.413,10.514a1.06,1.06,0,0,1-.111-.1,1.119,1.119,0,0,1,0-1.53,1.029,1.029,0,0,1,.11-.1L8.587.314a1.01,1.01,0,0,1,1.463,0,1.1,1.1,0,0,1,0,1.515L2.5,9.649l7.548,7.82a1.1,1.1,0,0,1,0,1.516,1.01,1.01,0,0,1-1.463,0Z" transform="translate(-4208.702 -6828.145) rotate(90)"/>
      <rect id="line" class="cls-2" width="19.299" height="2.068" rx="1" transform="translate(-4228 -6829.516)"/>
    </g>
  </g>
</svg>
