<svg xmlns="http://www.w3.org/2000/svg" width="16" height="16.001" viewBox="0 0 16 16.001">
  <defs>
    <style>
      .cls-1 {
        fill: none;
      }

      .cls-2 {
        fill: #fff;
      }
    </style>
  </defs>
  <g id="分享主页icon" transform="translate(-50 -57.999)">
    <rect id="bg" class="cls-1" width="16" height="16" transform="translate(66 74) rotate(180)"/>
    <path id="分享" class="cls-2" d="M139.9,62.72H129.54A1.592,1.592,0,0,1,128,61.1V50.9a1.592,1.592,0,0,1,1.54-1.624h6.19a.56.56,0,0,1,0,1.12h-6.19a.472.472,0,0,0-.42.5V61.068a.472.472,0,0,0,.42.5H139.9a.472.472,0,0,0,.42-.5V55.439a.56.56,0,0,1,1.12,0V61.1A1.592,1.592,0,0,1,139.9,62.72Zm-6.862-3.361a.562.562,0,0,1-.56-.56,8.989,8.989,0,0,1,8.962-8.962.56.56,0,1,1,0,1.12A7.865,7.865,0,0,0,133.6,58.8.562.562,0,0,1,133.041,59.36Zm6.442-5.013a.54.54,0,0,1-.28-.084.532.532,0,0,1-.2-.756l1.68-2.913-2.913-1.68a.552.552,0,0,1,.56-.952l3.389,1.961a.532.532,0,0,1,.2.756l-1.961,3.389A.493.493,0,0,1,139.483,54.346Z" transform="translate(-76.999 10.125)"/>
  </g>
</svg>
