<svg xmlns="http://www.w3.org/2000/svg" width="22" height="22" viewBox="0 0 22 22">
  <g id="活动" transform="translate(-104 -265)">
    <g id="组_2541" data-name="组 2541">
      <path id="旗帜" d="M274.742,45.277a1.1,1.1,0,0,0-1.018-.113l-2.262.9a5.455,5.455,0,0,1-5.089-.679,7.38,7.38,0,0,0-7.464-1.131l-2.262.905a.989.989,0,0,0-.678,1.018V59.754a1.4,1.4,0,0,0,.452.905,1.1,1.1,0,0,0,1.018.113l2.262-.905a5.455,5.455,0,0,1,5.089.679,7.421,7.421,0,0,0,4.637,1.584,7.6,7.6,0,0,0,2.714-.452l2.262-.905a1.088,1.088,0,0,0,.679-1.018V46.183a.938.938,0,0,0-.339-.905Z" transform="translate(-150.846 224.056)" fill="#fc8b00"/>
      <rect id="矩形_2618" data-name="矩形 2618" width="22" height="22" transform="translate(104 265)" fill="none"/>
    </g>
    <path id="路径_1672" data-name="路径 1672" d="M-1690.562-6642.435a7.933,7.933,0,0,1,5.451.4,6.765,6.765,0,0,0,5.676.3v1.2a7.906,7.906,0,0,1-5.676-.322,6.6,6.6,0,0,0-5.451-.453C-1690.437-6642.513-1690.562-6642.435-1690.562-6642.435Z" transform="translate(1799.783 6918.416)" fill="#ffbc6a"/>
  </g>
</svg>
