<svg xmlns="http://www.w3.org/2000/svg" width="142" height="142" viewBox="0 0 142 142">
  <defs>
    <style>
      .cls-1 {
        fill: #f0f1f3;
      }

      .cls-2 {
        fill: #e0e3e6;
      }

      .cls-14, .cls-3, .cls-5 {
        fill: none;
      }

      .cls-3 {
        stroke: #dbdbdb;
      }

      .cls-3, .cls-5 {
        stroke-linecap: round;
      }

      .cls-4 {
        fill: #eceff0;
      }

      .cls-5 {
        stroke: #d5d5d5;
      }

      .cls-6 {
        fill: #eceef0;
      }

      .cls-7 {
        fill: #f5f6f8;
      }

      .cls-8 {
        fill: #d5d5d5;
      }

      .cls-9 {
        fill: #fdcac4;
      }

      .cls-10 {
        fill: #310e08;
      }

      .cls-11 {
        fill: #6b71e5;
      }

      .cls-12 {
        fill: #5d717c;
      }

      .cls-13 {
        fill: #fff;
      }
    </style>
  </defs>
  <g id="组_1651" data-name="组 1651" transform="translate(-116 -335)">
    <g id="组_1650" data-name="组 1650" transform="translate(-11633.419 -1555.518)">
      <path id="路径_1586" data-name="路径 1586" class="cls-1" d="M11907.244,2147.982s-47.069-5.077-36.066,2.16c5.052,9.285-64.588,4.354-54.855-5.4,11.427,0,18.184-.847,12.095-7.775-8.854-4.69-16.437-13.136,51.076-14.251a85.436,85.436,0,0,0,35.984-1.044s37.344-6.638,30.881,12.371C11942.021,2151.994,11907.244,2147.982,11907.244,2147.982Z" transform="translate(-59.969 -163.359)"/>
      <g id="组_1646" data-name="组 1646" transform="translate(11766.541 1936.387)">
        <path id="路径_1585" data-name="路径 1585" class="cls-2" d="M11638.581,2212.091c1.152-.307,14.365-22.354,11.14-7.375-3.533,7.528-.019,4.11-2.228,8.6s-.539,7.682-6.607,9.372S11638.581,2212.091,11638.581,2212.091Z" transform="translate(-11626.956 -2172.973)"/>
        <path id="路径_1590" data-name="路径 1590" class="cls-3" d="M3.206,13.626A27.265,27.265,0,0,1,.032,0" transform="matrix(0.809, 0.588, -0.588, 0.809, 21.785, 29.2)"/>
        <path id="路径_1579" data-name="路径 1579" class="cls-4" d="M11627.714,2208.022s-14.979-25.166,1.4-50.531c3.4,3.795,4.494,5.892,5.094,13.082s1.9,18.675,4.294,20.372c2.1,4.294,2.471,14.976-.9,15.878A62.952,62.952,0,0,1,11627.714,2208.022Z" transform="translate(-11621.452 -2157.49)"/>
        <path id="路径_1580" data-name="路径 1580" class="cls-5" d="M11634.939,2206.71s-7.49-15.379-2-38.048" transform="translate(-11623.85 -2158.07)"/>
        <path id="路径_1581" data-name="路径 1581" class="cls-5" d="M11630.379,2218.771s-3.494.1-3.794-3" transform="translate(-11622.185 -2175.506)"/>
        <path id="路径_1583" data-name="路径 1583" class="cls-5" d="M11628.971,2217.659s-2.2.063-2.386-1.884" transform="translate(-11623.244 -2192.282)"/>
        <path id="路径_1584" data-name="路径 1584" class="cls-5" d="M11626.584,2217.659s2.686.063,2.916-1.884" transform="translate(-11617.773 -2200.917)"/>
        <path id="路径_1582" data-name="路径 1582" class="cls-5" d="M11626.585,2218.771s1.05.1,1.141-3" transform="translate(-11617.773 -2183.525)"/>
        <path id="路径_1591" data-name="路径 1591" class="cls-3" d="M11626.585,2217.472s1.33.371,1.377-1.177" transform="translate(-11607.904 -2182.843)"/>
        <path id="路径_1592" data-name="路径 1592" class="cls-3" d="M1.413,1.177A1.09,1.09,0,0,1,0,0" transform="matrix(0.602, 0.799, -0.799, 0.602, 20.207, 29.429)"/>
      </g>
      <g id="组_1647" data-name="组 1647" transform="translate(11844.146 1908.854)">
        <g id="组_1645" data-name="组 1645" transform="translate(0 0)">
          <path id="路径_1577" data-name="路径 1577" class="cls-6" d="M11394.9,2006.5s7.289-2.505-1.139-11.616c-5.285-4.065-4.328-17.538,1.139-27.331,3.643-8.655,1.594-11.844,1.594-11.844a10.871,10.871,0,0,1,4.1-10.477c4.328-5.694,4.328-3.872,4.328-3.872v65.14Z" transform="translate(-11390.265 -1941.078)"/>
          <path id="路径_1578" data-name="路径 1578" class="cls-7" d="M11401.313,2006.5s3.766-4.351,1.256-11.616c-.6-8.007,9.041-12.738-1.256-27.331-4.018-8.655-.187-6.264-1.758-11.844s1.508-6.378-4.52-10.477c-4.77-5.694-4.77-3.872-4.77-3.872v65.14Z" transform="translate(-11376.097 -1941.078)"/>
          <path id="路径_1587" data-name="路径 1587" class="cls-8" d="M11418.912,2023l1.227-48.531.875,48.531Z" transform="translate(-11405.786 -1957.529)"/>
          <path id="路径_1588" data-name="路径 1588" class="cls-8" d="M.971,14.547A20.72,20.72,0,0,1,.006,7.9,37.076,37.076,0,0,1,1.338,0S.722,7.279,1.176,8.13s.425,6.417.425,6.417Z" transform="translate(5.148 28.985) rotate(-34)"/>
        </g>
        <path id="路径_1589" data-name="路径 1589" class="cls-8" d="M.5,8.666a9.555,9.555,0,0,0,.77-3.957A17.159,17.159,0,0,0,.21,0S.7,4.336.339,4.843,0,8.666,0,8.666Z" transform="translate(20.11 53.666) rotate(45)"/>
      </g>
      <g id="组_1648" data-name="组 1648" transform="translate(11797.289 1937.623)">
        <ellipse id="椭圆_253" data-name="椭圆 253" class="cls-9" cx="2.064" cy="3.583" rx="2.064" ry="3.583" transform="translate(10.033 2.026) rotate(4)"/>
        <path id="路径_1594" data-name="路径 1594" class="cls-9" d="M3.392.275C2.558-.979.36,2.46.36,2.46L0,4.411,2.007,9.219,3.7,7.479S4.226,1.53,3.392.275Z" transform="translate(7.075 1.781) rotate(-3)"/>
        <path id="路径_1593" data-name="路径 1593" class="cls-10" d="M0,3.784S.083.226,1.3.849C2.284.5,1.911-.55,2.769.364c1,.8,1.606-.1,1.91,0S7.24,3.036,8,2.4,9.649,4.393,5.579,4.586C3.2,3.077,3.963,3.14,3.475,2.662s-.235,1.62-.54.914-1.08-2.921-1.758,0A5.675,5.675,0,0,0,0,3.784Z" transform="translate(7.382 0.453) rotate(-3)"/>
        <path id="路径_1595" data-name="路径 1595" class="cls-11" d="M11732.417,1927.191c-.628.7-15.71,7.3-.52,27.34,6.25-1.773,7.643-.111,8.123-5.808S11733.044,1926.492,11732.417,1927.191Z" transform="translate(-11725.142 -1920.956)"/>
        <path id="路径_1596" data-name="路径 1596" class="cls-12" d="M11740.52,1983.408c1.822,2.976,3.961,4.848,9.713,4.848s29.619-.084,29.619-.084l.088-1.851S11738.7,1980.432,11740.52,1983.408Z" transform="translate(-11733.871 -1949.956)"/>
        <path id="路径_1597" data-name="路径 1597" class="cls-12" d="M11741.039,1967.629s14.926-9.357,17.72-8.551,13.434,11.553,13.434,11.553h-1.935l-11.068-7.415-6.74,6.767Z" transform="translate(-11734.262 -1934.051)"/>
        <path id="路径_1598" data-name="路径 1598" class="cls-12" d="M1.586.307C.747-.589,0,.712,0,1.211s.71.9,1.586.9,1.885.3,1.885-.2S2.424,1.2,1.586.307Z" transform="matrix(-0.276, -0.961, 0.961, -0.276, 45.857, 38.629)"/>
        <path id="路径_1599" data-name="路径 1599" class="cls-9" d="M11756.5,1952.266c1.069-.612,10.634-2.686,11.325-4.552s1.027,3.163-.691,3.7-10.538,4.413-10.538,4.413S11755.427,1952.878,11756.5,1952.266Z" transform="translate(-11744.401 -1926.127)"/>
        <rect id="矩形_2107" data-name="矩形 2107" class="cls-11" width="0.973" height="3.892" rx="0.486" transform="translate(24.372 19.78) rotate(51)"/>
        <path id="路径_1600" data-name="路径 1600" class="cls-9" d="M11734.424,1943.944a28.38,28.38,0,0,0,1.673,5.235c1.14,2.567.891,5.422,5.918,3.379.027-3.212,1.523-3.333.607-3.689-.729-.517-3.624,3.429-4.945-6.393A6.743,6.743,0,0,1,11734.424,1943.944Z" transform="translate(-11729.792 -1922.866)"/>
      </g>
      <path id="联合_60" data-name="联合 60" class="cls-11" d="M9.915,8.019H4.01A4.01,4.01,0,0,1,4.01,0h6.168A4.01,4.01,0,0,1,12,7.583V8.716A6.9,6.9,0,0,1,9.915,8.019Z" transform="translate(11787.235 1929.916)"/>
      <g id="组_1649" data-name="组 1649" transform="translate(11790.319 1933)">
        <circle id="椭圆_254" data-name="椭圆 254" class="cls-13" cx="0.925" cy="0.925" r="0.925"/>
        <circle id="椭圆_255" data-name="椭圆 255" class="cls-13" cx="0.925" cy="0.925" r="0.925" transform="translate(3.084)"/>
        <circle id="椭圆_256" data-name="椭圆 256" class="cls-13" cx="0.925" cy="0.925" r="0.925" transform="translate(6.168)"/>
      </g>
    </g>
    <rect id="矩形_2109" data-name="矩形 2109" class="cls-14" width="142" height="142" transform="translate(116 335)"/>
  </g>
</svg>
