<svg xmlns="http://www.w3.org/2000/svg" xmlns:xlink="http://www.w3.org/1999/xlink" width="375.049" height="260" viewBox="0 0 375.049 260">
  <defs>
    <linearGradient id="linear-gradient" x1="0.5" y1="0.361" x2="0.5" y2="1.227" gradientUnits="objectBoundingBox">
      <stop offset="0" stop-color="#a2ccee"/>
      <stop offset="0.497" stop-color="#c4cbe7" stop-opacity="0"/>
    </linearGradient>
  </defs>
  <g id="组_1616" data-name="组 1616" transform="translate(-9504 -8192)">
    <rect id="矩形_2082" data-name="矩形 2082" width="375" height="260" transform="translate(9504.049 8192)" fill="#f8f8f8"/>
    <path id="路径_1483" data-name="路径 1483" d="M1105,369V109h-43.294S975,133,960,204s-85.706,165-85.706,165Z" transform="translate(8774.049 8083)" fill="#b7d6f5"/>
    <path id="路径_1484" data-name="路径 1484" d="M1103.554,301.935l1-27.039s-1.6-11.574,0-18.04c.612-2.472.272-33.824.272-33.824a50.051,50.051,0,0,1-2.914-6.457c-2.115-6.962-6.831-15.2-16.364-4.246-14.527,16.7-14.194,27.719-14.194,27.719s-5.343,26.049-8.349,27.384c-1.669-3.005-14.527-25.047-21.373,1.336-2.672-7.18-14.026-35.4-25.548-12.022-3.34-5.344-9.518-24.713-21.707-21.708-3.34-2.671-11.188-32.394-20.539-12.69-3.339-5.344-9.017-29.222-19.7,13.358S932.26,284.8,939.774,304Z" transform="translate(8774.049 8083)" fill="url(#linear-gradient)"/>
    <path id="路径_1485" data-name="路径 1485" d="M937,275.5a26.5,26.5,0,0,1,53,0" transform="translate(8774.049 8083)" fill="url(#linear-gradient)"/>
    <path id="路径_1486" data-name="路径 1486" d="M977,268.5a26.5,26.5,0,0,1,53,0" transform="translate(8774.049 8083)" fill="url(#linear-gradient)"/>
    <path id="路径_1487" data-name="路径 1487" d="M1052,272.5a26.5,26.5,0,0,1,53,0" transform="translate(8774.049 8083)" fill="url(#linear-gradient)"/>
    <path id="路径_1488" data-name="路径 1488" d="M1058.06,177.378s16.626,5.66,15.918-4.245c-1.415-2.83,0-7.428-20.163-2.83-4.245-.354-7.783,0-14.15-3.183a17.547,17.547,0,0,0-10.966,2.122c-3.891-.708-26.177-4.952-24.408,3.891,2.122,6.367,8.136,11.32,28.3,7.429,3.891-.708,11.32,2.122,11.32,2.122S1049.216,185.16,1058.06,177.378Z" transform="translate(8774.049 8083)" fill="#a2ccee"/>
    <rect id="矩形_2083" data-name="矩形 2083" width="187" height="125" transform="translate(9691.049 8325)" fill="none" stroke="#fff" stroke-miterlimit="10" stroke-width="1"/>
    <line id="直线_180" data-name="直线 180" x2="183" transform="translate(9696.049 8449.667)" fill="none" stroke="#fff" stroke-miterlimit="10" stroke-width="1"/>
    <line id="直线_181" data-name="直线 181" x2="183" transform="translate(9696.049 8418.5)" fill="none" stroke="#fff" stroke-miterlimit="10" stroke-width="1"/>
    <line id="直线_182" data-name="直线 182" x2="183" transform="translate(9696.049 8387.334)" fill="none" stroke="#fff" stroke-miterlimit="10" stroke-width="1"/>
    <line id="直线_183" data-name="直线 183" x2="183" transform="translate(9696.049 8356.166)" fill="none" stroke="#fff" stroke-miterlimit="10" stroke-width="1"/>
    <line id="直线_184" data-name="直线 184" y2="125" transform="translate(9859.674 8325)" fill="none" stroke="#fff" stroke-miterlimit="10" stroke-width="1"/>
    <line id="直线_185" data-name="直线 185" y2="125" transform="translate(9836.299 8325)" fill="none" stroke="#fff" stroke-miterlimit="10" stroke-width="1"/>
    <line id="直线_186" data-name="直线 186" y2="125" transform="translate(9812.924 8325)" fill="none" stroke="#fff" stroke-miterlimit="10" stroke-width="1"/>
    <line id="直线_187" data-name="直线 187" y2="125" transform="translate(9789.549 8325)" fill="none" stroke="#fff" stroke-miterlimit="10" stroke-width="1"/>
    <line id="直线_188" data-name="直线 188" y2="125" transform="translate(9766.174 8325)" fill="none" stroke="#fff" stroke-miterlimit="10" stroke-width="1"/>
    <line id="直线_189" data-name="直线 189" y2="125" transform="translate(9742.799 8325)" fill="none" stroke="#fff" stroke-miterlimit="10" stroke-width="1"/>
    <line id="直线_190" data-name="直线 190" y2="125" transform="translate(9719.424 8325)" fill="none" stroke="#fff" stroke-miterlimit="10" stroke-width="1"/>
    <path id="路径_1489" data-name="路径 1489" d="M880.479,315.767S877.094,209.842,901.761,199.2c1.935-7.255,4.837-19.83,26.6-18.863,2.9-2.9,58.282-14.268,50.543,118.258C979.874,307.3,902,331,880.479,315.767Z" transform="translate(8804.049 8082.928)" fill="#ced0e2"/>
    <path id="路径_1490" data-name="路径 1490" d="M729.951,352.829l310.013-54.585L1105,309.335v74.381H729.951Z" transform="translate(8774.049 8067.787)" fill="#6f7298"/>
    <path id="路径_1491" data-name="路径 1491" d="M992.045,298.318c-4.176-.62-16.74-5.413-17.274-13.04a.57.57,0,0,0-.1-.284c-2.327-3.375-9.309-17.694-10.632-14.167-.868,4.345-8.025,17.987-7.21,25.015a.592.592,0,0,1-.509.653l-4.984.712a.6.6,0,0,1-.685-.581l-1.348-38.619a.581.581,0,0,0-.057-.242c-.433-.913-3.242-7.536-.462-20.562a.6.6,0,0,0-.16-.55l-.443-.444a.6.6,0,0,0-.529-.166l-6.069,1.071a.6.6,0,0,0-.331,1c1.32,1.424,3.521,4.922,2.25,11.669a.517.517,0,0,0-.009.1c0,10.546-1.334,44.1-1.472,48.412a.6.6,0,0,1-.427.554l-25.875,9.835a.6.6,0,0,0-.418.467c-.372,2.066-3.181,11.932-21.822-.587a.629.629,0,0,1-.2-.225c-3.033-5.645-2.468-5.433.607-15.084a.619.619,0,0,0,.031-.193c-.02-8.833-2.621-20.67-.945-24.792a.545.545,0,0,0,.042-.254c-.488-6.032-3.881-30.265,12.937-36.931a.518.518,0,0,1,.054-.02c8.981-2.852,17.016-2.762,22.249-12.128a.6.6,0,0,1,1.117.263c.285,3.907,2.931,10.479,16.559,13.769a.638.638,0,0,0,.31,0c3.422-.9,4.769-2.9,12.2-8.028a.6.6,0,0,1,.49-.095,13.225,13.225,0,0,1,7.548,7.286.459.459,0,0,0,.06.111c2.808,3.851,17.589,46.9,27.444,53.5" transform="translate(8804.049 8079.378)" fill="#5783b4"/>
    <g id="组_1614" data-name="组 1614" transform="translate(-791 -118.304)">
      <path id="路径_1492" data-name="路径 1492" d="M1043.893,301.6l-43.523,13.96s-.411,1.643-7.391.821-45.576-7.391-45.576-7.391-4.517-1.643-2.464-3.7c2.053-.411,52.351-13.755,52.351-13.755l10.265.821,12.729-34.08,43.934-9.855s3.285-.821-3.285,9.855C1059.291,262.8,1043.893,301.6,1043.893,301.6Z" transform="translate(9605.01 8198.625)" fill="#99a4b7"/>
      <path id="路径_1493" data-name="路径 1493" d="M957.69,316.467l42.333-11.988a.877.877,0,0,1,.311-.03l8.143.709a.864.864,0,0,1,.732,1.171l-6.734,17.582a.864.864,0,0,1-.93.546l-43.744-6.3A.864.864,0,0,1,957.69,316.467Z" transform="translate(9602.329 8186.761)" fill="#617b87"/>
      <path id="路径_1494" data-name="路径 1494" d="M1022.177,310.677l18.477-48.04,34.9-8.212-17.245,45.987Z" transform="translate(9588.541 8197.353)" fill="#617b87"/>
    </g>
    <path id="路径_1495" data-name="路径 1495" d="M996.034,300.322a4.933,4.933,0,0,0,3.381,3.076.643.643,0,0,0,.338-.007,8.565,8.565,0,0,1,3.824-.463,3.789,3.789,0,0,0,3.015-.882c.906-.723,2.408-.607,3.264-.722a.609.609,0,0,1,.647.359c3.029,7.119,4.871,7.511,4.871,5.575l-.932-5.289a.6.6,0,0,1,1.189-.149c.785,4.936,1.345,5.555,2.08,5.523a1.6,1.6,0,0,0,1.062-.585c10.693-14.772,1.182-13.625-.6-13.214a.586.586,0,0,1-.506-.118c-.882-.716-3.264-5.52-11.489-2.133,0,0-1.822,1.367-5.909-1.2a1.878,1.878,0,0,0-.917-.3C996.444,289.668,992.382,292.286,996.034,300.322Z" transform="translate(8796.687 8074.309)" fill="#ecb5a7"/>
    <path id="路径_1497" data-name="路径 1497" d="M930.015,210.375s-17.36-34.5,13.711-37.99c5.877,1.486,48.752,26.43,2.957,21.218,2.971,5.73,4.174,27.9,4.174,27.9Z" transform="translate(8801.632 8082.674)" fill="#270f07"/>
    <path id="路径_1498" data-name="路径 1498" d="M931.562,212.591s-1.806-7.028-.99-7.737,5.69-8.956,7.081,6.172c2.7.8,6.212-1.1,6.212-1.1s-3.694-8.542,1.941-7.992c2.222-1.071,2.209-3.066-.28-6.921,1.285-.83,13.267,1.086,20.643-1.31.963,3.748.387,5.4.387,5.4l-1.914,3.239s6.558,15.8-.389,12.089c-1.393,2.356-3.95,6.01-2.277,10.576-1.044,1.766-.563,3.641-7.6,3.453-.576,1.647-4.633,9.182-22.69-6.655A24.47,24.47,0,0,1,931.562,212.591Z" transform="translate(8801.264 8081.154)" fill="#e89d90"/>
    <path id="路径_1499" data-name="路径 1499" d="M926.375,281.019c2.144-2.3,6.448-8.179,2.324-14.93-.484-2.9,1.935-5.322,1.935-5.322s1.935-12.578,15.965,0c4.354,3.386,5.321,5.806,0,15.481-2.345,2.344-7.844,7.844-10.129,11.657a3.006,3.006,0,0,1-3.754,1.238c-2.624-1.114-5.572-2.625-6.821-5.094A2.688,2.688,0,0,1,926.375,281.019Z" transform="translate(8801.601 8076.774)" fill="#ecb5a7"/>
    <g id="组_1613" data-name="组 1613" transform="translate(-767.129 -144.637)">
      <g id="组_1612" data-name="组 1612" transform="translate(10437.891 8533.316)">
        <ellipse id="椭圆_237" data-name="椭圆 237" cx="17.463" cy="4.973" rx="17.463" ry="4.973" transform="translate(0 0)" fill="#dce3ec"/>
        <ellipse id="椭圆_238" data-name="椭圆 238" cx="15.23" cy="4.337" rx="15.23" ry="4.337" transform="translate(2.234 0.636)" fill="none" stroke="#2d416c" stroke-miterlimit="10" stroke-width="1"/>
      </g>
      <path id="路径_1496" data-name="路径 1496" d="M875.9,334.944h-9.746a2.334,2.334,0,0,1-2.437-2.216l-4.061-24a2.334,2.334,0,0,1,2.437-2.215h17.869a2.334,2.334,0,0,1,2.437,2.215l-4.061,24A2.334,2.334,0,0,1,875.9,334.944Z" transform="translate(9584.327 8205.475)" fill="#2d416c"/>
      <rect id="矩形_2084" data-name="矩形 2084" width="27.21" height="6.498" rx="3.249" transform="translate(10441.545 8510.365)" fill="#d1dbdf"/>
      <rect id="矩形_2085" data-name="矩形 2085" width="2.843" height="8.122" transform="translate(10446.825 8503.056)" fill="#d1dbdf"/>
    </g>
    <rect id="_切片_" data-name="&lt;切片&gt;" width="375" height="260" transform="translate(9504.049 8192)" fill="none"/>
  </g>
</svg>
