<svg xmlns="http://www.w3.org/2000/svg" xmlns:xlink="http://www.w3.org/1999/xlink" width="375" height="100.209" viewBox="0 0 375 100.209">
  <defs>
    <style>
      .cls-1 {
        fill: url(#linear-gradient);
      }

      .cls-2 {
        fill: #80a8e8;
        font-size: 12px;
      }

      .cls-2, .cls-3, .cls-4 {
        font-family: PingFang SC Medium, PingFang SC;
      }

      .cls-15, .cls-3 {
        fill: #fff;
      }

      .cls-3 {
        font-size: 14px;
      }

      .cls-4 {
        fill: #d6e1f2;
        font-size: 10px;
      }

      .cls-5 {
        fill: #cd96fc;
      }

      .cls-6 {
        fill: #5d05ad;
      }

      .cls-7 {
        fill: none;
        stroke: #8725df;
        stroke-linecap: round;
      }

      .cls-8 {
        fill: #6505bc;
      }

      .cls-9 {
        fill: #8725df;
      }

      .cls-10 {
        fill: #fdcac4;
      }

      .cls-11 {
        fill: #310e08;
      }

      .cls-12 {
        fill: #6b71e5;
      }

      .cls-13 {
        fill: #232596;
      }

      .cls-14 {
        fill: #5d717c;
      }
    </style>
    <linearGradient id="linear-gradient" y1="0.5" x2="1" y2="0.564" gradientUnits="objectBoundingBox">
      <stop offset="0" stop-color="#212495"/>
      <stop offset="1" stop-color="#874bd1"/>
    </linearGradient>
  </defs>
  <g id="组_1966" data-name="组 1966" transform="translate(0 -1744)">
    <rect id="矩形_2308" data-name="矩形 2308" class="cls-1" width="375" height="100" transform="translate(0 1744)"/>
    <text id="_知识储备_" data-name="#知识储备#" class="cls-2" transform="translate(25 1774)"><tspan x="0" y="0">#知识储备#</tspan></text>
    <text id="从今天开始_做有学问的金融人" data-name="从今天开始 做有学问的金融人" class="cls-3" transform="translate(25 1795)"><tspan x="0" y="0">从今天开始 做有学问的金融人</tspan></text>
    <text id="金额行业全方位进阶计划" class="cls-4" transform="translate(25 1813)"><tspan x="0" y="0">金额行业全方位进阶计划</tspan></text>
    <g id="组_1650" data-name="组 1650" transform="translate(-11525.419 -155.871)">
      <path id="路径_1586" data-name="路径 1586" class="cls-5" d="M11916.5,2150.747s-51.813-5.589-39.7,2.377c5.562,10.22-71.1,4.792-60.385-5.944,12.579,0,20.017-.932,13.314-8.559-9.746-5.163-18.095-14.46,56.225-15.688a94.051,94.051,0,0,0,39.611-1.15s41.107-7.307,33.993,13.617C11954.787,2155.163,11916.5,2150.747,11916.5,2150.747Z" transform="translate(-59.97 -158.486)"/>
      <g id="组_1646" data-name="组 1646" transform="translate(11767.662 1939.162)">
        <path id="路径_1585" data-name="路径 1585" class="cls-6" d="M11638.7,2213.36c1.269-.338,15.813-24.608,12.263-8.118-3.889,8.287-.021,4.524-2.452,9.471s-.593,8.456-7.273,10.317S11638.7,2213.36,11638.7,2213.36Z" transform="translate(-11625.9 -2170.298)"/>
        <path id="路径_1590" data-name="路径 1590" class="cls-7" d="M3.529,15A30.013,30.013,0,0,1,.036,0" transform="matrix(0.809, 0.588, -0.588, 0.809, 23.981, 32.143)"/>
        <path id="路径_1579" data-name="路径 1579" class="cls-6" d="M11628.346,2213.115s-16.489-27.7,1.538-55.625c3.739,4.177,4.947,6.486,5.607,14.4s2.089,20.557,4.727,22.426c2.308,4.727,2.72,16.485-.989,17.479S11628.346,2213.115,11628.346,2213.115Z" transform="translate(-11621.452 -2157.49)"/>
        <path id="路径_1580" data-name="路径 1580" class="cls-7" d="M11635.345,2210.545s-8.246-16.929-2.2-41.883" transform="translate(-11623.137 -2157.002)"/>
        <path id="路径_1581" data-name="路径 1581" class="cls-7" d="M11630.762,2219.073s-3.847.11-4.177-3.3" transform="translate(-11621.741 -2171.447)"/>
        <path id="路径_1583" data-name="路径 1583" class="cls-7" d="M11629.212,2217.849s-2.419.069-2.627-2.074" transform="translate(-11622.907 -2189.914)"/>
        <path id="路径_1584" data-name="路径 1584" class="cls-7" d="M11626.584,2217.849s2.956.069,3.21-2.074" transform="translate(-11616.886 -2199.42)"/>
        <path id="路径_1582" data-name="路径 1582" class="cls-7" d="M11626.585,2219.073s1.156.11,1.256-3.3" transform="translate(-11616.886 -2180.274)"/>
        <path id="路径_1591" data-name="路径 1591" class="cls-7" d="M11626.585,2217.591s1.465.408,1.516-1.3" transform="translate(-11606.021 -2179.471)"/>
        <path id="路径_1592" data-name="路径 1592" class="cls-7" d="M1.555,1.3A1.2,1.2,0,0,1,0,0" transform="matrix(0.602, 0.799, -0.799, 0.602, 22.244, 32.396)"/>
      </g>
      <g id="组_1647" data-name="组 1647" transform="translate(11853.09 1908.854)">
        <g id="组_1645" data-name="组 1645" transform="translate(0 0)">
          <path id="路径_1577" data-name="路径 1577" class="cls-6" d="M11395.373,2013.089s8.023-2.758-1.254-12.787c-5.818-4.475-4.764-19.305,1.254-30.086,4.01-9.528,1.754-13.037,1.754-13.037a11.963,11.963,0,0,1,4.514-11.533c4.764-6.268,4.764-4.262,4.764-4.262v71.706Z" transform="translate(-11390.266 -1941.078)"/>
          <path id="路径_1578" data-name="路径 1578" class="cls-8" d="M11402.426,2013.089s4.146-4.79,1.383-12.787c-.656-8.815,9.953-14.022-1.383-30.086-4.422-9.528-.205-6.9-1.934-13.037s1.66-7.021-4.977-11.533c-5.25-6.268-5.25-4.262-5.25-4.262v71.706Z" transform="translate(-11374.669 -1941.078)"/>
          <path id="路径_1587" data-name="路径 1587" class="cls-9" d="M11418.913,2027.892l1.351-53.423.963,53.423Z" transform="translate(-11404.464 -1955.822)"/>
          <path id="路径_1588" data-name="路径 1588" class="cls-9" d="M1.068,16.014A22.808,22.808,0,0,1,.006,8.7,40.813,40.813,0,0,1,1.473,0S.795,8.013,1.295,8.95s.467,7.064.467,7.064Z" transform="translate(5.667 31.907) rotate(-34)"/>
        </g>
        <path id="路径_1589" data-name="路径 1589" class="cls-9" d="M.553,9.539A10.518,10.518,0,0,0,1.4,5.183,18.889,18.889,0,0,0,.231,0s.54,4.773.143,5.331S0,9.539,0,9.539Z" transform="translate(22.137 59.075) rotate(45)"/>
      </g>
      <g id="组_1648" data-name="组 1648" transform="translate(11801.51 1940.523)">
        <ellipse id="椭圆_253" data-name="椭圆 253" class="cls-10" cx="2.272" cy="3.944" rx="2.272" ry="3.944" transform="translate(11.044 2.23) rotate(4)"/>
        <path id="路径_1594" data-name="路径 1594" class="cls-10" d="M3.734.3C2.815-1.078.4,2.708.4,2.708L0,4.856l2.21,5.292L4.069,8.233S4.652,1.685,3.734.3Z" transform="translate(7.788 1.96) rotate(-3)"/>
        <path id="路径_1593" data-name="路径 1593" class="cls-11" d="M0,4.165S.092.248,1.433.934C2.515.553,2.1-.6,3.048.4c1.1.884,1.768-.107,2.1,0S7.97,3.342,8.808,2.641s1.813,2.194-2.667,2.408C3.52,3.388,4.362,3.456,3.825,2.931s-.259,1.783-.594,1.006S2.042.721,1.3,3.936A6.247,6.247,0,0,0,0,4.165Z" transform="translate(8.126 0.498) rotate(-3)"/>
        <path id="路径_1595" data-name="路径 1595" class="cls-12" d="M11733.151,1927.193c-.691.769-17.294,8.032-.572,30.1,6.88-1.952,8.413-.123,8.942-6.393S11733.842,1926.424,11733.151,1927.193Z" transform="translate(-11725.142 -1920.329)"/>
        <path id="路径_1596" data-name="路径 1596" class="cls-13" d="M11740.525,1983.493c2.006,3.276,4.36,5.337,10.692,5.337s32.6-.092,32.6-.092l.1-2.037S11738.524,1980.217,11740.525,1983.493Z" transform="translate(-11733.207 -1946.669)"/>
        <path id="路径_1597" data-name="路径 1597" class="cls-13" d="M11741.04,1968.5s16.43-10.3,19.506-9.413,14.787,12.718,14.787,12.718h-2.129l-12.185-8.163-7.419,7.449Z" transform="translate(-11733.579 -1931.533)"/>
        <path id="路径_1598" data-name="路径 1598" class="cls-14" d="M1.746.338C.823-.648,0,.784,0,1.333s.782,1,1.746,1,2.075.332,2.075-.218S2.669,1.324,1.746.338Z" transform="matrix(-0.276, -0.961, 0.961, -0.276, 50.479, 42.523)"/>
        <path id="路径_1599" data-name="路径 1599" class="cls-10" d="M11756.542,1952.767c1.178-.674,11.706-2.956,12.467-5.01s1.131,3.482-.761,4.073-11.6,4.858-11.6,4.858S11755.365,1953.441,11756.542,1952.767Z" transform="translate(-11743.228 -1923.992)"/>
        <rect id="矩形_2107" data-name="矩形 2107" class="cls-12" width="1.071" height="4.284" rx="0.535" transform="translate(26.828 21.774) rotate(51)"/>
        <path id="路径_1600" data-name="路径 1600" class="cls-10" d="M11734.424,1944.092a31.309,31.309,0,0,0,1.842,5.762c1.254,2.826.98,5.968,6.516,3.72.029-3.536,1.676-3.669.668-4.061-.8-.57-3.99,3.775-5.443-7.037A7.429,7.429,0,0,1,11734.424,1944.092Z" transform="translate(-11729.325 -1920.89)"/>
      </g>
      <path id="联合_60" data-name="联合 60" class="cls-13" d="M10.915,8.827h-6.5A4.414,4.414,0,0,1,4.414,0H11.2a4.414,4.414,0,0,1,2.005,8.346V9.595A7.6,7.6,0,0,1,10.915,8.827Z" transform="translate(11790.442 1932.039)"/>
      <g id="组_1649" data-name="组 1649" transform="translate(11793.837 1935.434)">
        <circle id="椭圆_254" data-name="椭圆 254" class="cls-15" cx="1.018" cy="1.018" r="1.018"/>
        <circle id="椭圆_255" data-name="椭圆 255" class="cls-15" cx="1.018" cy="1.018" r="1.018" transform="translate(3.395)"/>
        <circle id="椭圆_256" data-name="椭圆 256" class="cls-15" cx="1.018" cy="1.018" r="1.018" transform="translate(6.79)"/>
      </g>
    </g>
  </g>
</svg>
