<svg xmlns="http://www.w3.org/2000/svg" width="32.167" height="28.002" viewBox="0 0 32.167 28.002">
  <defs>
    <style>
      .cls-1 {
        fill: none;
      }

      .cls-2 {
        fill: #407cf6;
        opacity: 0.9;
      }

      .cls-3 {
        fill: #5086f4;
        opacity: 0.6;
      }
    </style>
  </defs>
  <g id="组_1946" data-name="组 1946" transform="translate(-23.292 -367.199)">
    <rect id="矩形_2274" data-name="矩形 2274" class="cls-1" width="28" height="28" transform="translate(25.404 367.201)"/>
    <g id="组_1922" data-name="组 1922" transform="translate(478.151 1684.776) rotate(60)">
      <path id="减去_13" data-name="减去 13" class="cls-2" d="M5.822,14.975A5.829,5.829,0,0,1,0,9.153V5.824A5.83,5.83,0,0,1,5.822,0H7.488V3.328a2.5,2.5,0,1,0,4.991,0V0h9.152a1.664,1.664,0,0,1,0,3.328h-2.5V4.16h2.5a1.664,1.664,0,0,1,0,3.328h-2.5V8.32h2.5a1.664,1.664,0,0,1,0,3.328H7.488V13.31A1.667,1.667,0,0,1,5.822,14.975Z" transform="translate(-1362 -276.1)"/>
      <path id="减去_12" data-name="减去 12" class="cls-3" d="M12.064,9.984H3.877V7.562A2.154,2.154,0,0,0,0,6.269V6.032a6.032,6.032,0,0,1,12.064,0V9.983Z" transform="translate(-1353.68 -286.5)"/>
      <rect id="矩形_1932" data-name="矩形 1932" class="cls-3" width="9.152" height="3.328" rx="1.664" transform="translate(-1350.352 -280.26) rotate(90)"/>
      <path id="联合_37" data-name="联合 37" class="cls-3" d="M7.9,3.6a1.664,1.664,0,0,1-2.5,0,1.664,1.664,0,0,1-2.5,0A1.664,1.664,0,0,1,0,2.5V1.664A1.664,1.664,0,0,1,2.912.563a1.664,1.664,0,0,1,2.5,0,1.664,1.664,0,0,1,2.5,0,1.664,1.664,0,0,1,2.912,1.1V2.5A1.664,1.664,0,0,1,7.9,3.6Z" transform="translate(-1353.146 -263.793)"/>
    </g>
  </g>
</svg>
