<svg xmlns="http://www.w3.org/2000/svg" width="30.674" height="30.674" viewBox="0 0 30.674 30.674">
  <defs>
    <style>
      .cls-1 {
        fill: #fff;
      }

      .cls-2 {
        fill: #54abf8;
        stroke-linecap: round;
        stroke-linejoin: round;
        stroke-miterlimit: 10;
      }

      .cls-3, .cls-4 {
        stroke: none;
      }

      .cls-4 {
        fill: #56aef8;
      }
    </style>
  </defs>
  <g id="组_1929" data-name="组 1929" transform="translate(-313.705 -365.705)">
    <rect id="矩形_2277" data-name="矩形 2277" class="cls-1" width="28.406" height="28.406" transform="translate(315 367)"/>
    <g id="收藏_默认icons" class="cls-2" transform="translate(316.605 368.606)">
      <path class="cls-3" d="M 22.08700752258301 27.5184383392334 L 18.48166847229004 25.52360725402832 L 12.43680763244629 22.17900276184082 L 6.391947746276855 25.52360725402832 L 2.78660774230957 27.5184383392334 L 3.44975757598877 23.45172691345215 L 4.625545024871826 16.2413444519043 L -0.331172376871109 11.16358757019043 L -3.04834246635437 8.380067825317383 L 0.7964576482772827 7.789707660675049 L 7.578830242156982 6.748284816741943 L 10.62604808807373 0.2507876455783844 L 12.43680763244629 -3.610242366790771 L 14.24756717681885 0.2507876455783844 L 17.29478454589844 6.748284816741943 L 24.07715797424316 7.789707660675049 L 27.92195701599121 8.380067825317383 L 25.20478820800781 11.16358757019043 L 20.24806976318359 16.2413444519043 L 21.42385673522949 23.45172691345215 L 22.08700752258301 27.5184383392334 Z"/>
      <path class="cls-4" d="M 12.43680763244629 1.099994659423828 L 8.93668270111084 8.563232421875 L 1.099994659423828 9.766532897949219 L 6.761970520019531 15.56677055358887 L 5.423683166503906 23.77362060546875 L 12.43680763244629 19.89327049255371 L 19.44993209838867 23.77362060546875 L 18.11164474487305 15.56677055358887 L 23.77362060546875 9.766532897949219 L 15.93693256378174 8.563232421875 L 12.43680763244629 1.099994659423828 M 12.43680763244629 -2.900005340576172 C 13.98815727233887 -2.900005340576172 15.39960765838623 -2.002992630004883 16.05831909179688 -0.5984306335449219 L 18.65262222290039 4.933341979980469 L 24.38069534301758 5.812870025634766 C 25.86220741271973 6.04034423828125 27.09222030639648 7.077007293701172 27.56734466552734 8.49858283996582 C 28.04245758056641 9.920157432556152 27.68295669555664 11.48807048797607 26.63595771789551 12.56063270568848 L 22.38448143005371 16.91592788696289 L 23.39778327941895 23.12984466552734 C 23.64435768127441 24.64192008972168 23.00560760498047 26.16199493408203 21.75298309326172 27.04409408569336 C 21.06535339355469 27.52831649780273 20.25883674621582 27.77362632751465 19.44961357116699 27.77362632751465 C 18.78470611572266 27.77362632751465 18.11804389953613 27.60814476013184 17.51339530944824 27.27359580993652 L 12.43680763244629 24.4647274017334 L 7.360219955444336 27.27359580993652 C 6.755653381347656 27.60809898376465 6.08881950378418 27.77362632751465 5.424001693725586 27.77362632751465 C 4.614686965942383 27.77362632751465 3.808338165283203 27.52837181091309 3.120632171630859 27.04409408569336 C 1.868007659912109 26.16199493408203 1.229257583618164 24.64192008972168 1.475831985473633 23.12984466552734 L 2.489133834838867 16.91592788696289 L -1.76234245300293 12.56063270568848 C -2.809341430664063 11.48807048797607 -3.168842315673828 9.920157432556152 -2.693729400634766 8.49858283996582 C -2.218605041503906 7.077007293701172 -0.9885921478271484 6.04034423828125 0.492919921875 5.812870025634766 L 6.220993041992188 4.933341979980469 L 8.81529426574707 -0.5984306335449219 C 9.474007606506348 -2.002992630004883 10.88545799255371 -2.900005340576172 12.43680763244629 -2.900005340576172 Z"/>
    </g>
  </g>
</svg>
