<svg xmlns="http://www.w3.org/2000/svg" width="26" height="26" viewBox="0 0 26 26">
  <defs>
    <style>
      .cls-1, .cls-2, .cls-3 {
        fill: none;
      }

      .cls-3 {
        stroke-linecap: round;
        stroke-linejoin: round;
      }

      .cls-4, .cls-6 {
        fill: #121c33;
      }

      .cls-5, .cls-6 {
        stroke: none;
      }
    </style>
  </defs>
  <g id="组_2250" data-name="组 2250" transform="translate(-320 -53)">
    <g id="组_1484" data-name="组 1484" transform="translate(320 53)">
      <rect id="矩形_1883" data-name="矩形 1883" class="cls-1" width="26" height="26" transform="translate(0)"/>
    </g>
    <g id="组_2248" data-name="组 2248" transform="translate(322.364 54.182)">
      <g id="交叉_1" data-name="交叉 1" class="cls-2" transform="translate(12.728 23.636) rotate(180)">
        <path class="cls-5" d="M.021,2.424a2.121,2.121,0,1,1,4.221-.3,2.137,2.137,0,0,1-.021.3Z"/>
        <path class="cls-6" d="M 4.221169948577881 2.423700094223022 L 0.02139998227357864 2.423700094223022 C 0.007299982011318207 2.324900150299072 -1.792907688979994e-08 2.223999977111816 -1.792907688979994e-08 2.121299982070923 C -1.792907688979994e-08 0.9495000243186951 0.9494999647140503 4.711151291303395e-08 2.121299982070923 4.711151291303395e-08 C 3.292200088500977 4.711151291303395e-08 4.242599964141846 0.9495000243186951 4.242599964141846 2.121299982070923 C 4.242599964141846 2.223999977111816 4.23528003692627 2.324900150299072 4.221169948577881 2.423700094223022 Z"/>
      </g>
      <g id="交叉_2" data-name="交叉 2" class="cls-2" transform="translate(8.485 0)">
        <path class="cls-5" d="M.021,2.424a2.121,2.121,0,1,1,4.221-.3,2.137,2.137,0,0,1-.021.3Z"/>
        <path class="cls-6" d="M 4.221169948577881 2.423700094223022 L 0.02139998227357864 2.423700094223022 C 0.007299982011318207 2.324900150299072 -1.792907688979994e-08 2.223999977111816 -1.792907688979994e-08 2.121299982070923 C -1.792907688979994e-08 0.9495000243186951 0.9494999647140503 4.711151291303395e-08 2.121299982070923 4.711151291303395e-08 C 3.292200088500977 4.711151291303395e-08 4.242599964141846 0.9495000243186951 4.242599964141846 2.121299982070923 C 4.242599964141846 2.223999977111816 4.23528003692627 2.324900150299072 4.221169948577881 2.423700094223022 Z"/>
      </g>
      <g id="联合_76" data-name="联合 76" class="cls-3" transform="translate(0 1.348)">
        <path class="cls-5" d="M18.1,20.47H2.676a1.97,1.97,0,0,1-.341-.03A2.4,2.4,0,0,1,0,18.012a2.786,2.786,0,0,1,.718-1.88V9.792a9.792,9.792,0,1,1,19.583,0v6.5a2.794,2.794,0,0,1,.583,1.719,2.449,2.449,0,0,1-2.611,2.462Q18.188,20.474,18.1,20.47Z"/>
        <path class="cls-6" d="M 18.27359962463379 18.47410011291504 C 18.88450050354004 18.47410011291504 18.88450050354004 18.12607002258301 18.88450050354004 18.01169967651367 C 18.88450050354004 17.77779006958008 18.79620933532715 17.61508941650391 18.72213935852051 17.51977920532227 C 18.44936943054199 17.16881942749023 18.30130004882813 16.73698997497559 18.30130004882813 16.29249000549316 L 18.30130004882813 9.791999816894531 C 18.30130004882813 5.495480060577393 14.80582046508789 2 10.50930023193359 2 C 6.21327018737793 2 2.718200206756592 5.495480060577393 2.718200206756592 9.791999816894531 L 2.718200206756592 16.1319408416748 C 2.718200206756592 16.62961006164551 2.532650232315063 17.10940933227539 2.197800159454346 17.47759056091309 C 2.123930215835571 17.5588207244873 2.000000238418579 17.73621940612793 2.000000238418579 18.01169967651367 C 2.000000238418579 18.14891052246094 2.000000238418579 18.40431976318359 2.5038902759552 18.44712066650391 C 2.562158107757568 18.45206451416016 2.620182037353516 18.45956993103027 2.677795648574829 18.46960067749023 L 18.10342025756836 18.46960067749023 C 18.13867950439453 18.46960067749023 18.17394065856934 18.47052955627441 18.20915031433105 18.4724006652832 C 18.23050117492676 18.47352981567383 18.2521800994873 18.47410011291504 18.27359962463379 18.47410011291504 M 18.27359962463379 20.47410011291504 C 18.21640014648438 20.47410011291504 18.15970993041992 20.47257995605469 18.10342025756836 20.46960067749023 L 2.675700187683105 20.46960067749023 C 2.559390306472778 20.46960067749023 2.44536018371582 20.45940017700195 2.334620237350464 20.43993949890137 C 1.022610306739807 20.32850074768066 2.517700181670079e-07 19.42167091369629 2.517700181670079e-07 18.01169967651367 C 2.517700181670079e-07 17.2830696105957 0.2731802463531494 16.62125968933105 0.7182002663612366 16.1319408416748 L 0.7182002663612366 9.791999816894531 C 0.7182002663612366 4.383900165557861 5.101200103759766 5.645751954830303e-08 10.50930023193359 5.645751954830303e-08 C 15.91740036010742 5.645751954830303e-08 20.30130004882813 4.383900165557861 20.30130004882813 9.791999816894531 L 20.30130004882813 16.29249000549316 C 20.66596031188965 16.76169967651367 20.88450050354004 17.35989952087402 20.88450050354004 18.01169967651367 C 20.88450050354004 19.51919937133789 19.71540069580078 20.47410011291504 18.27359962463379 20.47410011291504 Z"/>
      </g>
    </g>
    <rect id="矩形_2301" data-name="矩形 2301" class="cls-4" width="4" height="2" rx="1" transform="translate(331 66)"/>
  </g>
</svg>
