<svg xmlns="http://www.w3.org/2000/svg" width="20.641" height="20.641" viewBox="0 0 20.641 20.641">
  <defs>
    <style>
      .cls-1, .cls-2, .cls-5 {
        fill: #929fad;
      }

      .cls-1 {
        stroke: #929fad;
        stroke-width: 2px;
      }

      .cls-2 {
        stroke-linecap: round;
        stroke-linejoin: round;
      }

      .cls-3 {
        fill: none;
      }

      .cls-4, .cls-5 {
        stroke: none;
      }
    </style>
  </defs>
  <g id="组_1354" data-name="组 1354" transform="translate(-47 -199)">
    <g id="组_1349" data-name="组 1349" transform="translate(49.867 200.72)">
      <g id="椭圆_120" data-name="椭圆 120" class="cls-1" transform="translate(4.102)">
        <ellipse class="cls-4" cx="3.692" cy="4.467" rx="3.692" ry="4.467"/>
        <ellipse class="cls-3" cx="3.692" cy="4.467" rx="2.692" ry="3.467"/>
      </g>
      <g id="减去_10" data-name="减去 10" class="cls-2" transform="translate(0 10.839)">
        <path class="cls-4" d="M 15.31424140930176 6.909539222717285 L 15.31360149383545 6.909539222717285 L 1.181488073598302e-06 6.909539222717285 L -0.9999988079071045 6.909539222717285 L -0.9999988079071045 5.909539222717285 L -0.9999988079071045 1.745869398117065 L -0.9999988079071045 1.065819382667542 L -0.3675488233566284 0.8158693909645081 L 4.049951076507568 -0.9300006031990051 L 4.22706127166748 -1.000000596046448 L 4.417500972747803 -1.000000596046448 L 6.212021350860596 -1.000000596046448 L 6.924520969390869 -1.000000596046448 L 7.157191276550293 -0.3265706300735474 L 7.869902610778809 1.736209034919739 L 8.698861122131348 -0.3667206168174744 L 8.948491096496582 -0.9999906420707703 L 9.629180908203125 -0.9999906420707703 L 11.39636135101318 -1.000000596046448 L 11.60909080505371 -1.000000596046448 L 11.80340099334717 -0.9134106040000916 L 15.72127151489258 0.8324593901634216 L 16.31424140930176 1.096689343452454 L 16.31424140930176 1.745869398117065 L 16.31424140930176 5.908899307250977 L 16.31424140930176 6.908899307250977 L 15.31424140930176 6.909539222717285 Z"/>
        <path class="cls-5" d="M 15.31424140930176 5.909539222717285 L 15.31424140930176 5.908899307250977 L 15.31424140930176 1.745869398117065 L 11.39637088775635 -6.270599328672688e-07 L 9.629191398620605 9.37294043978909e-06 L 7.80816125869751 4.619659423828125 L 6.212021350860596 -6.270599328672688e-07 L 4.417500972747803 -6.270599328672688e-07 L 1.181488073598302e-06 1.745869398117065 L 1.181488073598302e-06 5.909539222717285 L 15.31360149383545 5.909539222717285 L 15.31424140930176 5.909539222717285 M 15.31424140930176 7.909539222717285 L 15.31360149383545 7.909539222717285 L 1.181488073598302e-06 7.909539222717285 C -1.104568839073181 7.909539222717285 -1.999998807907104 7.014109134674072 -1.999998807907104 5.909539222717285 L -1.999998807907104 1.745869398117065 C -1.999998807907104 0.925049364566803 -1.49846887588501 0.1875593662261963 -0.7351087927818298 -0.1141406297683716 L 3.682391166687012 -1.860010623931885 C 3.916441202163696 -1.952500581741333 4.165841102600098 -2.000000715255737 4.417500972747803 -2.000000715255737 L 6.212021350860596 -2.000000715255737 C 6.91988468170166 -2.000000715255737 7.56314754486084 -1.62737774848938 7.920628070831299 -1.039783596992493 C 8.279078483581543 -1.629079699516296 8.923280715942383 -1.999990582466125 9.629180908203125 -1.999990582466125 L 11.39636135101318 -2.000000715255737 C 11.67686080932617 -2.000000715255737 11.95422077178955 -1.941000580787659 12.21044158935547 -1.826830625534058 L 16.12831115722656 -0.08096062391996384 C 16.84960174560547 0.2404593676328659 17.31424140930176 0.9561993479728699 17.31424140930176 1.745869398117065 L 17.31424140930176 5.908899307250977 C 17.31424140930176 7.013469219207764 16.4188117980957 7.909539222717285 15.31424140930176 7.909539222717285 Z"/>
      </g>
    </g>
    <rect id="矩形_1774" data-name="矩形 1774" class="cls-3" width="20.641" height="20.641" transform="translate(47 199)"/>
  </g>
</svg>
