<svg xmlns="http://www.w3.org/2000/svg" width="20" height="20" viewBox="0 0 20 20">
  <defs>
    <style>
      .cls-1, .cls-3 {
        fill: none;
      }

      .cls-1, .cls-2 {
        stroke: #121c33;
        stroke-linecap: round;
        stroke-linejoin: round;
        stroke-miterlimit: 10;
        stroke-width: 2px;
      }

      .cls-2 {
        fill: rgba(216,6,6,0);
      }

      .cls-4 {
        fill: #121c33;
      }
    </style>
  </defs>
  <g id="组_2412" data-name="组 2412" transform="translate(-324.973 -632.973)">
    <path id="layer2" class="cls-1" d="M15.248,10.342a7.4,7.4,0,0,0,.085-.854c0-3.106-2.98-5.631-6.667-5.631S2,6.381,2,9.512a5.153,5.153,0,0,0,1.136,3.182l-.3,2.929L5.46,14.487a7.348,7.348,0,0,0,2.121.606,3,3,0,0,0,.579-.006" transform="translate(325.192 631.144)"/>
    <path id="layer1" class="cls-2" d="M34.6,30.743c0-2.374-2.248-4.293-5.05-4.293-2.778,0-5.05,1.919-5.05,4.293s2.248,4.293,5.05,4.293a5.877,5.877,0,0,0,2.424-.53l1.995.859-.227-2.222a3.921,3.921,0,0,0,.859-2.4Z" transform="translate(308.753 614.636)"/>
    <rect id="矩形_2526" data-name="矩形 2526" class="cls-3" width="20" height="20" transform="translate(324.973 632.973)"/>
    <circle id="椭圆_305" data-name="椭圆 305" class="cls-4" cx="1" cy="1" r="1" transform="translate(336 644)"/>
    <circle id="椭圆_307" data-name="椭圆 307" class="cls-4" cx="1" cy="1" r="1" transform="translate(331 638)"/>
    <circle id="椭圆_306" data-name="椭圆 306" class="cls-4" cx="1" cy="1" r="1" transform="translate(339 644)"/>
    <circle id="椭圆_308" data-name="椭圆 308" class="cls-4" cx="1" cy="1" r="1" transform="translate(334 638)"/>
  </g>
</svg>
