<svg xmlns="http://www.w3.org/2000/svg" width="10.769" height="10.769" viewBox="0 0 10.769 10.769">
  <defs>
    <style>
      .cls-1, .cls-3 {
        fill: #387be6;
      }

      .cls-1 {
        stroke-linecap: round;
        stroke-linejoin: round;
        stroke-miterlimit: 10;
      }

      .cls-2, .cls-3 {
        stroke: none;
      }
    </style>
  </defs>
  <g id="收藏_默认icons" class="cls-1" transform="translate(0.9 0.901)">
    <path class="cls-2" d="M 7.896308422088623 9.74086856842041 L 6.09363842010498 8.743448257446289 L 4.484228610992432 7.85296630859375 L 2.874818563461304 8.743448257446289 L 1.072138667106628 9.74086856842041 L 1.403728604316711 7.707508563995361 L 1.721988916397095 5.755868911743164 L 0.3844186067581177 4.38563871383667 L -0.9741714000701904 2.993878602981567 L 0.9482285976409912 2.698688507080078 L 2.760455131530762 2.420422554016113 L 3.578848600387573 0.6753886342048645 L 4.484228610992432 -1.255111336708069 L 5.389608383178711 0.6753886342048645 L 6.208002090454102 2.420422554016113 L 8.020228385925293 2.698688507080078 L 9.942618370056152 2.993878602981567 L 8.584048271179199 4.38563871383667 L 7.246476173400879 5.755878925323486 L 7.564728736877441 7.707518577575684 L 7.896308422088623 9.74086856842041 Z"/>
    <path class="cls-3" d="M 4.484228610992432 1.099998474121094 L 3.43937873840332 3.327898502349854 L 1.099998474121094 3.687108516693115 L 2.790188789367676 5.418578624725342 L 2.390688419342041 7.86845874786377 L 4.484228610992432 6.710108757019043 L 6.5777587890625 7.86845874786377 L 6.178258895874023 5.418578624725342 L 7.86845874786377 3.687108516693115 L 5.529078483581543 3.327898502349854 L 4.484228610992432 1.099998474121094 M 4.484228610992432 -0.9000015258789063 C 5.259898662567139 -0.9000015258789063 5.965628623962402 -0.4514913558959961 6.294978618621826 0.2507781982421875 L 6.886919975280762 1.512955665588379 L 8.171998977661133 1.710278511047363 C 8.912758827209473 1.824018478393555 9.527758598327637 2.342348575592041 9.765318870544434 3.053138732910156 C 10.00287818908691 3.763928413391113 9.823128700256348 4.547878742218018 9.299628257751465 5.084158897399902 L 8.314682006835938 6.093154907226563 L 8.551688194274902 7.546568870544434 C 8.674968719482422 8.302608489990234 8.355598449707031 9.062648773193359 7.729278564453125 9.503698348999023 C 7.385465621948242 9.745807647705078 6.982203483581543 9.868464469909668 6.577592372894287 9.868464469909668 C 6.245140075683594 9.868464469909668 5.911813735961914 9.785724639892578 5.609488487243652 9.618448257446289 L 4.484221458435059 8.995838165283203 L 3.358948707580566 9.618448257446289 C 3.056668758392334 9.785702705383301 2.723265171051025 9.868463516235352 2.39085865020752 9.868463516235352 C 1.986203670501709 9.868463516235352 1.583019733428955 9.745829582214355 1.239168643951416 9.503688812255859 C 0.6128482818603516 9.062648773193359 0.2934789657592773 8.302608489990234 0.4167585372924805 7.546568870544434 L 0.6537666320800781 6.093151569366455 L -0.3311710357666016 5.084158897399902 C -0.8546714782714844 4.547868728637695 -1.034420967102051 3.763918399810791 -0.7968616485595703 3.053138732910156 C -0.5593013763427734 2.342348575592041 0.05569839477539063 1.824018478393555 0.7964582443237305 1.710278511047363 L 2.081537246704102 1.512955665588379 L 2.673478603363037 0.2507781982421875 C 3.002828598022461 -0.4514913558959961 3.708558559417725 -0.9000015258789063 4.484228610992432 -0.9000015258789063 Z"/>
  </g>
</svg>
