<svg xmlns="http://www.w3.org/2000/svg" xmlns:xlink="http://www.w3.org/1999/xlink" width="45.604" height="31.127" viewBox="0 0 45.604 31.127">
  <defs>
    <style>
      .cls-1 {
        fill: #fff;
      }

      .cls-2 {
        fill: none;
      }

      .cls-2, .cls-4 {
        opacity: 0.6;
      }

      .cls-3, .cls-4, .cls-6 {
        fill: #f2a942;
      }

      .cls-5, .cls-6 {
        stroke: none;
      }

      .cls-7 {
        filter: url(#减去_20);
      }
    </style>
    <filter id="减去_20" x="0" y="0" width="45.604" height="26.181" filterUnits="userSpaceOnUse">
      <feOffset dy="3" input="SourceAlpha"/>
      <feGaussianBlur stdDeviation="3" result="blur"/>
      <feFlood flood-color="#916eef" flood-opacity="0.302"/>
      <feComposite operator="in" in2="blur"/>
      <feComposite in="SourceGraphic"/>
    </filter>
  </defs>
  <g id="组_1927" data-name="组 1927" transform="translate(-107 -364.279)">
    <rect id="矩形_2275" data-name="矩形 2275" class="cls-1" width="28.406" height="28.406" transform="translate(116 367)"/>
    <g id="组_1926" data-name="组 1926" transform="translate(116 367)">
      <g id="路径_1277" data-name="路径 1277" class="cls-2" transform="translate(9.287)">
        <path class="cls-5" d="M4.644,0C7.208,0,9.287,2.319,9.287,3.679S0,5.007,0,3.679,2.079,0,4.644,0Z"/>
        <path class="cls-6" d="M 4.643721103668213 2.000000953674316 C 4.000177383422852 2.000000953674316 3.41613245010376 2.275614023208618 2.960452556610107 2.616876602172852 C 3.440006732940674 2.658677339553833 4.016188144683838 2.68678092956543 4.684861183166504 2.68678092956543 C 5.327790260314941 2.68678092956543 5.882532119750977 2.660312175750732 6.345678329467773 2.620735168457031 C 5.889286041259766 2.278095483779907 5.299418449401855 2.000000953674316 4.643721103668213 2.000000953674316 M 4.643721103668213 9.5367431640625e-07 C 7.208381175994873 9.5367431640625e-07 9.287441253662109 2.318721055984497 9.287441253662109 3.678680896759033 C 9.287441253662109 4.354593753814697 6.992753982543945 4.686776161193848 4.684864521026611 4.686776161193848 C 2.349200248718262 4.686776161193848 9.5367431640625e-07 4.346753120422363 9.5367431640625e-07 3.678680896759033 C 9.5367431640625e-07 2.350481033325195 2.079061031341553 9.5367431640625e-07 4.643721103668213 9.5367431640625e-07 Z"/>
      </g>
      <path id="减去_21" data-name="减去 21" class="cls-3" d="M24.537,16.019H3.067c-1.691,0-3.067-.8-3.067-1.78V0H5.735a1.438,1.438,0,0,0,1.23,1.108A1.438,1.438,0,0,0,8.2,0H19.2a1.438,1.438,0,0,0,1.23,1.108A1.438,1.438,0,0,0,21.663,0H27.6V14.239C27.6,15.221,26.228,16.019,24.537,16.019Z" transform="translate(0 12.387)"/>
      <g class="cls-7" transform="matrix(1, 0, 0, 1, -9, -2.72)">
        <path id="减去_20-2" data-name="减去 20" class="cls-4" d="M19.04,8.18H8.358q0-.027,0-.053c0-1.152-.625-2.089-1.392-2.089s-1.393.937-1.393,2.089q0,.027,0,.053H0A8.188,8.188,0,0,1,8.179,0H19.425A8.189,8.189,0,0,1,27.6,8.178H21.825q0-.027,0-.053c0-1.152-.625-2.089-1.393-2.089s-1.393.937-1.393,2.089q0,.027,0,.053Z" transform="translate(9 6)"/>
      </g>
      <ellipse id="椭圆_216" data-name="椭圆 216" class="cls-4" cx="0.929" cy="1.625" rx="0.929" ry="1.625" transform="translate(6.037 9.78)"/>
      <ellipse id="椭圆_220" data-name="椭圆 220" class="cls-4" cx="0.929" cy="1.625" rx="0.929" ry="1.625" transform="translate(19.504 9.78)"/>
    </g>
  </g>
</svg>
