<svg xmlns="http://www.w3.org/2000/svg" width="14" height="14" viewBox="0 0 14 14">
  <defs>
    <style>
      .cls-1, .cls-3 {
        fill: none;
      }

      .cls-2 {
        fill: #e1e3f8;
      }

      .cls-2, .cls-3 {
        stroke-linecap: round;
        stroke-linejoin: round;
      }

      .cls-3 {
        stroke: #387be6;
        fill-rule: evenodd;
      }

      .cls-4, .cls-5 {
        stroke: none;
      }

      .cls-5 {
        fill: #387be6;
      }
    </style>
  </defs>
  <g id="公告_喇叭" data-name="公告 喇叭" transform="translate(-480 -15)">
    <rect id="矩形_25" data-name="矩形 25" class="cls-1" width="14" height="14" transform="translate(480 15)"/>
    <g id="路径_1" data-name="路径 1" class="cls-2" transform="translate(481.977 16.977)">
      <path class="cls-4" d="M 4.604844093322754 10.54693794250488 L 4.442254066467285 10.54693794250488 L 4.31075382232666 10.45130825042725 L -0.2940859794616699 7.102327823638916 L -0.4999959766864777 6.952568054199219 L -0.4999959766864777 6.697957992553711 L -0.4999959766864777 3.348978042602539 L -0.4999959766864777 3.094367980957031 L -0.2940859794616699 2.944607973098755 L 4.31075382232666 -0.404371976852417 L 4.442254066467285 -0.5000019669532776 L 4.604844093322754 -0.5000019669532776 C 5.137124061584473 -0.5000019669532776 5.523464202880859 0.06238801777362823 5.523464202880859 0.8372480273246765 L 5.523464202880859 9.209688186645508 C 5.523464202880859 9.98454761505127 5.137124061584473 10.54693794250488 4.604844093322754 10.54693794250488 Z"/>
      <path class="cls-5" d="M 4.604844093322754 -1.9073486328125e-06 L 3.814697265625e-06 3.348978042602539 L 3.814697265625e-06 6.697957992553711 L 4.604844093322754 10.04693794250488 C 4.836043834686279 10.04693794250488 5.023464202880859 9.672087669372559 5.023464202880859 9.209688186645508 L 5.023464202880859 0.8372478485107422 C 5.023464202880859 0.3748483657836914 4.836043834686279 -1.9073486328125e-06 4.604844093322754 -1.9073486328125e-06 M 4.604844093322754 -1.000001907348633 C 5.426844120025635 -1.000001907348633 6.023464202880859 -0.2273216247558594 6.023464202880859 0.8372478485107422 L 6.023464202880859 9.209688186645508 C 6.023464202880859 10.27425765991211 5.426844120025635 11.04693794250488 4.604844093322754 11.04693794250488 C 4.39350414276123 11.04693794250488 4.187593936920166 10.97997760772705 4.016674041748047 10.85567760467529 L -0.5881657600402832 7.506698131561279 C -0.8469161987304688 7.318517684936523 -0.9999961853027344 7.017898082733154 -0.9999961853027344 6.697957992553711 L -0.9999961853027344 3.348978042602539 C -0.9999961853027344 3.029037952423096 -0.8469161987304688 2.728417873382568 -0.5881657600402832 2.540237903594971 L 4.016674041748047 -0.808741569519043 C 4.187593936920166 -0.9330415725708008 4.39350414276123 -1.000001907348633 4.604844093322754 -1.000001907348633 Z"/>
    </g>
    <path id="路径_7" data-name="路径 7" class="cls-3" d="M1.5.5a.984.984,0,0,1,0,1.969" transform="translate(488.008 20.516)"/>
    <path id="路径_8" data-name="路径 8" class="cls-3" d="M1.5.5a2.984,2.984,0,0,1,0,5.969" transform="translate(488.008 18.516)"/>
  </g>
</svg>
