<svg xmlns="http://www.w3.org/2000/svg" xmlns:xlink="http://www.w3.org/1999/xlink" width="148.436" height="128" viewBox="0 0 148.436 128">
  <defs>
    <style>
      .cls-1 {
        fill: #fff;
      }

      .cls-2 {
        fill: url(#linear-gradient);
      }

      .cls-3 {
        fill: #dfe6fe;
      }

      .cls-4, .cls-5, .cls-7 {
        fill: none;
      }

      .cls-4 {
        stroke: #63a6ff;
        stroke-width: 4px;
      }

      .cls-5 {
        stroke: #dfe6fe;
        stroke-width: 2px;
      }

      .cls-6 {
        stroke: none;
      }

      .cls-8 {
        filter: url(#联合_74);
      }

      .cls-9 {
        filter: url(#椭圆_282);
      }

      .cls-10 {
        filter: url(#椭圆_281);
      }

      .cls-11 {
        filter: url(#矩形_2364);
      }

      .cls-12 {
        filter: url(#矩形_2365);
      }

      .cls-13 {
        filter: url(#矩形_2363);
      }

      .cls-14 {
        filter: url(#联合_73);
      }

      .cls-15 {
        filter: url(#矩形_2362);
      }
    </style>
    <filter id="矩形_2362" x="23.435" y="0" width="115" height="128" filterUnits="userSpaceOnUse">
      <feOffset dy="3" input="SourceAlpha"/>
      <feGaussianBlur stdDeviation="6" result="blur"/>
      <feFlood flood-opacity="0.059"/>
      <feComposite operator="in" in2="blur"/>
      <feComposite in="SourceGraphic"/>
    </filter>
    <linearGradient id="linear-gradient" x1="0.5" x2="0.5" y2="1" gradientUnits="objectBoundingBox">
      <stop offset="0" stop-color="#a093f5"/>
      <stop offset="1" stop-color="#695aff"/>
    </linearGradient>
    <filter id="联合_73" x="0" y="10.32" width="87.356" height="87.357" filterUnits="userSpaceOnUse">
      <feOffset dy="3" input="SourceAlpha"/>
      <feGaussianBlur stdDeviation="6" result="blur-2"/>
      <feFlood flood-color="#4f3dff" flood-opacity="0.329"/>
      <feComposite operator="in" in2="blur-2"/>
      <feComposite in="SourceGraphic"/>
    </filter>
    <filter id="矩形_2363" x="66.435" y="46" width="20" height="16" filterUnits="userSpaceOnUse">
      <feOffset dy="1" input="SourceAlpha"/>
      <feGaussianBlur stdDeviation="2" result="blur-3"/>
      <feFlood flood-color="#4f3dff" flood-opacity="0.102"/>
      <feComposite operator="in" in2="blur-3"/>
      <feComposite in="SourceGraphic"/>
    </filter>
    <filter id="矩形_2365" x="66.435" y="62" width="25" height="16" filterUnits="userSpaceOnUse">
      <feOffset dy="1" input="SourceAlpha"/>
      <feGaussianBlur stdDeviation="2" result="blur-4"/>
      <feFlood flood-color="#4f3dff" flood-opacity="0.102"/>
      <feComposite operator="in" in2="blur-4"/>
      <feComposite in="SourceGraphic"/>
    </filter>
    <filter id="矩形_2364" x="66.435" y="54" width="30" height="16" filterUnits="userSpaceOnUse">
      <feOffset dy="1" input="SourceAlpha"/>
      <feGaussianBlur stdDeviation="2" result="blur-5"/>
      <feFlood flood-color="#4f3dff" flood-opacity="0.102"/>
      <feComposite operator="in" in2="blur-5"/>
      <feComposite in="SourceGraphic"/>
    </filter>
    <filter id="椭圆_281" x="96.435" y="61" width="48" height="48" filterUnits="userSpaceOnUse">
      <feOffset dy="3" input="SourceAlpha"/>
      <feGaussianBlur stdDeviation="3" result="blur-6"/>
      <feFlood flood-color="#63a6ff" flood-opacity="0.161"/>
      <feComposite operator="in" in2="blur-6"/>
      <feComposite in="SourceGraphic"/>
    </filter>
    <filter id="椭圆_282" x="7.435" y="89" width="27" height="27" filterUnits="userSpaceOnUse">
      <feOffset dy="3" input="SourceAlpha"/>
      <feGaussianBlur stdDeviation="3" result="blur-7"/>
      <feFlood flood-color="#63a6ff" flood-opacity="0.161"/>
      <feComposite operator="in" in2="blur-7"/>
      <feComposite in="SourceGraphic"/>
    </filter>
    <filter id="联合_74" x="119.435" y="7.999" width="29.001" height="29.002" filterUnits="userSpaceOnUse">
      <feOffset dy="3" input="SourceAlpha"/>
      <feGaussianBlur stdDeviation="3" result="blur-8"/>
      <feFlood flood-color="#63a6ff" flood-opacity="0.161"/>
      <feComposite operator="in" in2="blur-8"/>
      <feComposite in="SourceGraphic"/>
    </filter>
  </defs>
  <g id="组_2055" data-name="组 2055" transform="translate(-106.565 -104)">
    <g class="cls-15" transform="matrix(1, 0, 0, 1, 106.57, 104)">
      <rect id="矩形_2362-2" data-name="矩形 2362" class="cls-1" width="79" height="92" rx="6" transform="translate(41.43 15)"/>
    </g>
    <g class="cls-14" transform="matrix(1, 0, 0, 1, 106.57, 104)">
      <path id="联合_73-2" data-name="联合 73" class="cls-2" d="M-547.708-10752.675a8,8,0,0,1,0-11.313l12.022-12.022-12.02-12.02a8,8,0,0,1,0-11.315,8,8,0,0,1,11.313,0l12.02,12.021,12.019-12.019a8,8,0,0,1,11.316,0,8,8,0,0,1,0,11.313l-12.021,12.021,12.021,12.021a8,8,0,0,1,0,11.313,8,8,0,0,1-11.313,0l-12.022-12.021-12.023,12.021a7.972,7.972,0,0,1-5.656,2.345A7.978,7.978,0,0,1-547.708-10752.675Z" transform="translate(568.05 10827.01)"/>
    </g>
    <g id="组_2054" data-name="组 2054" transform="translate(-3 3)">
      <g class="cls-13" transform="matrix(1, 0, 0, 1, 109.57, 101)">
        <rect id="矩形_2363-2" data-name="矩形 2363" class="cls-3" width="8" height="4" rx="2" transform="translate(72.43 51)"/>
      </g>
      <g class="cls-12" transform="matrix(1, 0, 0, 1, 109.57, 101)">
        <rect id="矩形_2365-2" data-name="矩形 2365" class="cls-3" width="13" height="4" rx="2" transform="translate(72.43 67)"/>
      </g>
      <g class="cls-11" transform="matrix(1, 0, 0, 1, 109.57, 101)">
        <rect id="矩形_2364-2" data-name="矩形 2364" class="cls-3" width="18" height="4" rx="2" transform="translate(72.43 59)"/>
      </g>
    </g>
    <g class="cls-10" transform="matrix(1, 0, 0, 1, 106.57, 104)">
      <g id="椭圆_281-2" data-name="椭圆 281" class="cls-4" transform="translate(105.43 67)">
        <circle class="cls-6" cx="15" cy="15" r="15"/>
        <circle class="cls-7" cx="15" cy="15" r="13"/>
      </g>
    </g>
    <g class="cls-9" transform="matrix(1, 0, 0, 1, 106.57, 104)">
      <g id="椭圆_282-2" data-name="椭圆 282" class="cls-5" transform="translate(16.43 95)">
        <circle class="cls-6" cx="4.5" cy="4.5" r="4.5"/>
        <circle class="cls-7" cx="4.5" cy="4.5" r="3.5"/>
      </g>
    </g>
    <g class="cls-8" transform="matrix(1, 0, 0, 1, 106.57, 104)">
      <path id="联合_74-2" data-name="联合 74" class="cls-3" d="M-563.721-10795.223v-3.056h-3.056A1.223,1.223,0,0,1-568-10799.5a1.221,1.221,0,0,1,1.223-1.223h3.056v-3.056a1.221,1.221,0,0,1,1.22-1.224,1.223,1.223,0,0,1,1.223,1.224v3.056h3.056A1.221,1.221,0,0,1-557-10799.5a1.223,1.223,0,0,1-1.223,1.221h-3.056v3.056A1.223,1.223,0,0,1-562.5-10794,1.221,1.221,0,0,1-563.721-10795.223Z" transform="translate(696.43 10819)"/>
    </g>
  </g>
</svg>
