<svg xmlns="http://www.w3.org/2000/svg" xmlns:xlink="http://www.w3.org/1999/xlink" width="750" height="500" viewBox="0 0 750 500">
  <defs>
    <style>
      .cls-1 {
        fill: #fff;
      }

      .cls-2 {
        fill: url(#linear-gradient);
      }

      .cls-3 {
        clip-path: url(#clip-path);
      }

      .cls-4 {
        fill: url(#linear-gradient-2);
      }

      .cls-5 {
        fill: url(#linear-gradient-3);
      }

      .cls-6 {
        fill: url(#linear-gradient-4);
      }

      .cls-7 {
        clip-path: url(#clip-path-2);
      }

      .cls-8, .cls-9 {
        opacity: 0.38;
      }

      .cls-8 {
        fill: url(#linear-gradient-6);
      }

      .cls-9 {
        fill: url(#linear-gradient-7);
      }
    </style>
    <linearGradient id="linear-gradient" x1="0.037" y1="0.5" x2="0.883" y2="0.909" gradientUnits="objectBoundingBox">
      <stop offset="0" stop-color="#4ca4f2" stop-opacity="0"/>
      <stop offset="1" stop-color="#5aadf6"/>
    </linearGradient>
    <clipPath id="clip-path">
      <rect id="矩形_2873" data-name="矩形 2873" class="cls-1" width="750" height="500"/>
    </clipPath>
    <linearGradient id="linear-gradient-2" x1="0.014" y1="0.027" x2="0.883" y2="0.909" gradientUnits="objectBoundingBox">
      <stop offset="0" stop-color="#4ca4f2"/>
      <stop offset="1" stop-color="#2e68ee"/>
    </linearGradient>
    <linearGradient id="linear-gradient-3" x1="0.194" y1="0.178" x2="0.621" y2="0.882" gradientUnits="objectBoundingBox">
      <stop offset="0" stop-color="#5da2f1"/>
      <stop offset="1" stop-color="#2a62e5"/>
    </linearGradient>
    <linearGradient id="linear-gradient-4" x1="0.582" y1="0.5" x2="0.825" y2="0.813" gradientUnits="objectBoundingBox">
      <stop offset="0" stop-color="#5aadf6" stop-opacity="0"/>
      <stop offset="1" stop-color="#5aadf6"/>
    </linearGradient>
    <clipPath id="clip-path-2">
      <path id="路径_1909" data-name="路径 1909" class="cls-2" d="M157,0A157,157,0,1,1,0,157,157,157,0,0,1,157,0Z" transform="translate(-6 318)"/>
    </clipPath>
    <linearGradient id="linear-gradient-6" x1="0.145" y1="0.039" x2="0.906" y2="0.978" gradientUnits="objectBoundingBox">
      <stop offset="0" stop-color="#91c4ff"/>
      <stop offset="1" stop-color="#91c4ff" stop-opacity="0"/>
    </linearGradient>
    <linearGradient id="linear-gradient-7" x1="0.744" y1="1" x2="0" y2="0.061" xlink:href="#linear-gradient-6"/>
  </defs>
  <g id="蒙版组_4" data-name="蒙版组 4" class="cls-3">
    <g id="组_2739" data-name="组 2739">
      <rect id="矩形_2792" data-name="矩形 2792" class="cls-4" width="750" height="500"/>
      <path id="路径_1910" data-name="路径 1910" class="cls-5" d="M-23521.318-3063.441s-23.449,203.584,268.6,222.771,224.9,137.5,224.9,137.5l279.264-36.24-504.166-504.166Z" transform="translate(23777 3007)"/>
      <ellipse id="椭圆_360" data-name="椭圆 360" class="cls-6" cx="141.5" cy="93" rx="141.5" ry="93" transform="translate(-98 -76)"/>
      <g id="蒙版组_3" data-name="蒙版组 3" class="cls-7">
        <rect id="矩形_2789" data-name="矩形 2789" class="cls-2" width="750" height="500"/>
      </g>
      <path id="联合_78" data-name="联合 78" class="cls-8" d="M22994,3687a2.994,2.994,0,0,1-3-3v-10a3,3,0,0,1,3-3h10a3,3,0,0,1,3,3v10a3,3,0,0,1-3,3Zm-19,0a3,3,0,0,1-3-3v-10a3,3,0,0,1,3-3h10a3,3,0,0,1,3,3v10a3,3,0,0,1-3,3Zm-19,0a3,3,0,0,1-3-3v-10a3,3,0,0,1,3-3h10a3,3,0,0,1,3,3v10a3,3,0,0,1-3,3Zm-19,0a2.994,2.994,0,0,1-3-3v-10a3,3,0,0,1,3-3h10a3,3,0,0,1,3,3v10a3,3,0,0,1-3,3Zm-19,0a3,3,0,0,1-3-3v-10a3,3,0,0,1,3-3h10a3,3,0,0,1,3,3v10a3,3,0,0,1-3,3Zm76-19a3,3,0,0,1-3-3v-10a2.994,2.994,0,0,1,3-3h10a3,3,0,0,1,3,3v10a3,3,0,0,1-3,3Zm-19,0a3,3,0,0,1-3-3v-10a3,3,0,0,1,3-3h10a3,3,0,0,1,3,3v10a3,3,0,0,1-3,3Zm-19,0a3,3,0,0,1-3-3v-10a3,3,0,0,1,3-3h10a2.994,2.994,0,0,1,3,3v10a3,3,0,0,1-3,3Zm-19,0a3,3,0,0,1-3-3v-10a2.994,2.994,0,0,1,3-3h10a3,3,0,0,1,3,3v10a3,3,0,0,1-3,3Zm-19,0a3,3,0,0,1-3-3v-10a3,3,0,0,1,3-3h10a3,3,0,0,1,3,3v10a3,3,0,0,1-3,3Zm76-19a2.994,2.994,0,0,1-3-3v-10a3,3,0,0,1,3-3h10a3,3,0,0,1,3,3v10a3,3,0,0,1-3,3Zm-19,0a3,3,0,0,1-3-3v-10a3,3,0,0,1,3-3h10a3,3,0,0,1,3,3v10a3,3,0,0,1-3,3Zm-19,0a3,3,0,0,1-3-3v-10a3,3,0,0,1,3-3h10a3,3,0,0,1,3,3v10a2.994,2.994,0,0,1-3,3Zm-19,0a2.994,2.994,0,0,1-3-3v-10a3,3,0,0,1,3-3h10a3,3,0,0,1,3,3v10a3,3,0,0,1-3,3Zm-19,0a3,3,0,0,1-3-3v-10a3,3,0,0,1,3-3h10a3,3,0,0,1,3,3v10a3,3,0,0,1-3,3Zm76-19a3,3,0,0,1-3-3v-10a3,3,0,0,1,3-3h10a3,3,0,0,1,3,3v10a3,3,0,0,1-3,3Zm-19,0a3,3,0,0,1-3-3v-10a3,3,0,0,1,3-3h10a3,3,0,0,1,3,3v10a3,3,0,0,1-3,3Zm-19,0a3,3,0,0,1-3-3v-10a3,3,0,0,1,3-3h10a3,3,0,0,1,3,3v10a3,3,0,0,1-3,3Zm-19,0a3,3,0,0,1-3-3v-10a3,3,0,0,1,3-3h10a3,3,0,0,1,3,3v10a3,3,0,0,1-3,3Zm-19,0a3,3,0,0,1-3-3v-10a3,3,0,0,1,3-3h10a3,3,0,0,1,3,3v10a3,3,0,0,1-3,3Zm76-19a3,3,0,0,1-3-3v-10a3,3,0,0,1,3-3h10a3,3,0,0,1,3,3v10a3,3,0,0,1-3,3Zm-19,0a3,3,0,0,1-3-3v-10a3,3,0,0,1,3-3h10a3,3,0,0,1,3,3v10a3,3,0,0,1-3,3Zm-19,0a3,3,0,0,1-3-3v-10a3,3,0,0,1,3-3h10a3,3,0,0,1,3,3v10a3,3,0,0,1-3,3Zm-19,0a3,3,0,0,1-3-3v-10a3,3,0,0,1,3-3h10a3,3,0,0,1,3,3v10a3,3,0,0,1-3,3Zm-19,0a3,3,0,0,1-3-3v-10a3,3,0,0,1,3-3h10a3,3,0,0,1,3,3v10a3,3,0,0,1-3,3Zm76-19a2.994,2.994,0,0,1-3-3v-10a3,3,0,0,1,3-3h10a3,3,0,0,1,3,3v10a3,3,0,0,1-3,3Zm-19,0a3,3,0,0,1-3-3v-10a3,3,0,0,1,3-3h10a3,3,0,0,1,3,3v10a3,3,0,0,1-3,3Zm-19,0a3,3,0,0,1-3-3v-10a3,3,0,0,1,3-3h10a3,3,0,0,1,3,3v10a3,3,0,0,1-3,3Zm-19,0a2.994,2.994,0,0,1-3-3v-10a3,3,0,0,1,3-3h10a3,3,0,0,1,3,3v10a3,3,0,0,1-3,3Zm-19,0a3,3,0,0,1-3-3v-10a3,3,0,0,1,3-3h10a3,3,0,0,1,3,3v10a3,3,0,0,1-3,3Z" transform="translate(-22924 -3435)"/>
      <path id="联合_79" data-name="联合 79" class="cls-9" d="M22994,3687a2.994,2.994,0,0,1-3-3v-10a3,3,0,0,1,3-3h10a3,3,0,0,1,3,3v10a3,3,0,0,1-3,3Zm-19,0a3,3,0,0,1-3-3v-10a3,3,0,0,1,3-3h10a3,3,0,0,1,3,3v10a3,3,0,0,1-3,3Zm-19,0a3,3,0,0,1-3-3v-10a3,3,0,0,1,3-3h10a3,3,0,0,1,3,3v10a3,3,0,0,1-3,3Zm-19,0a2.994,2.994,0,0,1-3-3v-10a3,3,0,0,1,3-3h10a3,3,0,0,1,3,3v10a3,3,0,0,1-3,3Zm-19,0a3,3,0,0,1-3-3v-10a3,3,0,0,1,3-3h10a3,3,0,0,1,3,3v10a3,3,0,0,1-3,3Zm76-19a3,3,0,0,1-3-3v-10a2.994,2.994,0,0,1,3-3h10a3,3,0,0,1,3,3v10a3,3,0,0,1-3,3Zm-19,0a3,3,0,0,1-3-3v-10a3,3,0,0,1,3-3h10a3,3,0,0,1,3,3v10a3,3,0,0,1-3,3Zm-19,0a3,3,0,0,1-3-3v-10a3,3,0,0,1,3-3h10a2.994,2.994,0,0,1,3,3v10a3,3,0,0,1-3,3Zm-19,0a3,3,0,0,1-3-3v-10a2.994,2.994,0,0,1,3-3h10a3,3,0,0,1,3,3v10a3,3,0,0,1-3,3Zm-19,0a3,3,0,0,1-3-3v-10a3,3,0,0,1,3-3h10a3,3,0,0,1,3,3v10a3,3,0,0,1-3,3Zm76-19a2.994,2.994,0,0,1-3-3v-10a3,3,0,0,1,3-3h10a3,3,0,0,1,3,3v10a3,3,0,0,1-3,3Zm-19,0a3,3,0,0,1-3-3v-10a3,3,0,0,1,3-3h10a3,3,0,0,1,3,3v10a3,3,0,0,1-3,3Zm-19,0a3,3,0,0,1-3-3v-10a3,3,0,0,1,3-3h10a3,3,0,0,1,3,3v10a2.994,2.994,0,0,1-3,3Zm-19,0a2.994,2.994,0,0,1-3-3v-10a3,3,0,0,1,3-3h10a3,3,0,0,1,3,3v10a3,3,0,0,1-3,3Zm-19,0a3,3,0,0,1-3-3v-10a3,3,0,0,1,3-3h10a3,3,0,0,1,3,3v10a3,3,0,0,1-3,3Zm76-19a3,3,0,0,1-3-3v-10a3,3,0,0,1,3-3h10a3,3,0,0,1,3,3v10a3,3,0,0,1-3,3Zm-19,0a3,3,0,0,1-3-3v-10a3,3,0,0,1,3-3h10a3,3,0,0,1,3,3v10a3,3,0,0,1-3,3Zm-19,0a3,3,0,0,1-3-3v-10a3,3,0,0,1,3-3h10a3,3,0,0,1,3,3v10a3,3,0,0,1-3,3Zm-19,0a3,3,0,0,1-3-3v-10a3,3,0,0,1,3-3h10a3,3,0,0,1,3,3v10a3,3,0,0,1-3,3Zm-19,0a3,3,0,0,1-3-3v-10a3,3,0,0,1,3-3h10a3,3,0,0,1,3,3v10a3,3,0,0,1-3,3Zm76-19a3,3,0,0,1-3-3v-10a3,3,0,0,1,3-3h10a3,3,0,0,1,3,3v10a3,3,0,0,1-3,3Zm-19,0a3,3,0,0,1-3-3v-10a3,3,0,0,1,3-3h10a3,3,0,0,1,3,3v10a3,3,0,0,1-3,3Zm-19,0a3,3,0,0,1-3-3v-10a3,3,0,0,1,3-3h10a3,3,0,0,1,3,3v10a3,3,0,0,1-3,3Zm-19,0a3,3,0,0,1-3-3v-10a3,3,0,0,1,3-3h10a3,3,0,0,1,3,3v10a3,3,0,0,1-3,3Zm-19,0a3,3,0,0,1-3-3v-10a3,3,0,0,1,3-3h10a3,3,0,0,1,3,3v10a3,3,0,0,1-3,3Zm76-19a2.994,2.994,0,0,1-3-3v-10a3,3,0,0,1,3-3h10a3,3,0,0,1,3,3v10a3,3,0,0,1-3,3Zm-19,0a3,3,0,0,1-3-3v-10a3,3,0,0,1,3-3h10a3,3,0,0,1,3,3v10a3,3,0,0,1-3,3Zm-19,0a3,3,0,0,1-3-3v-10a3,3,0,0,1,3-3h10a3,3,0,0,1,3,3v10a3,3,0,0,1-3,3Zm-19,0a2.994,2.994,0,0,1-3-3v-10a3,3,0,0,1,3-3h10a3,3,0,0,1,3,3v10a3,3,0,0,1-3,3Zm-19,0a3,3,0,0,1-3-3v-10a3,3,0,0,1,3-3h10a3,3,0,0,1,3,3v10a3,3,0,0,1-3,3Z" transform="translate(-22231 -3227)"/>
    </g>
  </g>
</svg>
