<svg xmlns="http://www.w3.org/2000/svg" xmlns:xlink="http://www.w3.org/1999/xlink" width="193" height="189.163" viewBox="0 0 193 189.163">
  <defs>
    <style>
      .cls-1 {
        fill: #f3a78c;
      }

      .cls-2 {
        fill: url(#linear-gradient);
      }

      .cls-3 {
        fill: #f3a286;
      }

      .cls-4 {
        fill: #151811;
      }

      .cls-5 {
        fill: #3f0b9e;
      }

      .cls-6 {
        fill: url(#linear-gradient-2);
      }

      .cls-7 {
        fill: #fdaa8a;
      }

      .cls-8 {
        fill: #001b68;
      }

      .cls-11, .cls-9 {
        fill: none;
      }

      .cls-9 {
        stroke: #707070;
      }

      .cls-10 {
        fill: #240c6e;
      }

      .cls-11 {
        stroke: #5638b4;
        stroke-miterlimit: 10;
        stroke-width: 2px;
      }

      .cls-12 {
        fill: url(#linear-gradient-3);
      }

      .cls-13 {
        fill: url(#linear-gradient-17);
      }
    </style>
    <linearGradient id="linear-gradient" x1="0.5" x2="0.5" y2="1" gradientUnits="objectBoundingBox">
      <stop offset="0" stop-color="#9224d8"/>
      <stop offset="1" stop-color="#3c33f1"/>
    </linearGradient>
    <linearGradient id="linear-gradient-2" x1="0.5" x2="0.5" y2="1" gradientUnits="objectBoundingBox">
      <stop offset="0" stop-color="#a43be6"/>
      <stop offset="1" stop-color="#574eff"/>
    </linearGradient>
    <linearGradient id="linear-gradient-3" x1="0.5" x2="0.5" y2="1" gradientUnits="objectBoundingBox">
      <stop offset="0" stop-color="#8a1df2"/>
      <stop offset="1" stop-color="#44e3ef"/>
    </linearGradient>
    <linearGradient id="linear-gradient-17" x1="0.5" x2="0.5" y2="1" gradientUnits="objectBoundingBox">
      <stop offset="0" stop-color="#a271f8"/>
      <stop offset="1" stop-color="#5828d4"/>
    </linearGradient>
  </defs>
  <g id="组_2742" data-name="组 2742" transform="translate(-55.545 -495)">
    <g id="组_2716" data-name="组 2716" transform="translate(0 50)">
      <g id="组_2711" data-name="组 2711" transform="translate(166.501 445)">
        <path id="路径_1923" data-name="路径 1923" class="cls-1" d="M-23236.238-3318.328s28.766-20.321,40.137-23.944c1.113-5.519.449-5.073,2.344-6.41s1.227,11.594.387,12.207a2.359,2.359,0,0,1-2.117,0s-26.7,24.359-33.555,25.474S-23236.238-3318.328-23236.238-3318.328Z" transform="translate(23268.375 3348.779)"/>
        <path id="路径_1916" data-name="路径 1916" class="cls-2" d="M-23248.1-3293.863s5.641-3.471,6.82-2.687,9.145,8,6.883,9.538-7.711,1.841-7.711,1.841Z" transform="translate(23273.494 3326.294)"/>
        <path id="路径_1919" data-name="路径 1919" class="cls-3" d="M-23267.055-3046.471s-5.953,3.946,2.109,5.146c1.758-.643,1.707-4.679,1.707-4.679Z" transform="translate(23282.586 3218.342)"/>
        <path id="路径_1921" data-name="路径 1921" class="cls-3" d="M1.3,0S-2.788,4.323,3.543,5.41c1.381-.582.75-4.987.75-4.987Z" transform="translate(43.562 176.075) rotate(-20)"/>
        <path id="路径_1920" data-name="路径 1920" class="cls-4" d="M9.234,13.2C7.337,13.2.272,6.466.016,4.022S2.614,0,2.614,0,4.3,4.451,7.6,4.022,11.132,13.2,9.234,13.2Z" transform="translate(11.602 170.93) rotate(-8)"/>
        <path id="路径_1917" data-name="路径 1917" class="cls-5" d="M-23254.426-3188.131s4.43,19.688,8.1,27.6,6.219,46.159,4.8,57.558c-4.332-1.13-4.617.942-5.465-1.13s-9.7-29.2-10.453-26.565-11.684,24.681-13.566,23.833-5.559-.942-4.992-4.05,6.688-32.877,8.289-37.587c-1.887-3.957-14.789-19.406-20.254-40.507C-23280.43-3193.877-23254.426-3188.131-23254.426-3188.131Z" transform="translate(23290.689 3280.683)"/>
        <path id="路径_1924" data-name="路径 1924" class="cls-1" d="M-23231.395-3273.793s20.316,4.387,30.016,2.573c3.859-3.035,5.508-7.652,7.324-7.092s-1.617,4.255-1.949,4.684c3.2-.593,8.313-3.265,7.094-.824a19.455,19.455,0,0,1-4.125,2.045s11.875-3.529,3.367.989c2.176.165,5.605-.924,1.219,1.649,1.848.363,5.543.792-5.277,3.167-9.664,1.451-32.918,6.3-42.48,2.309A14.191,14.191,0,0,1-23231.395-3273.793Z" transform="translate(23268.361 3318.395)"/>
        <path id="路径_1915" data-name="路径 1915" class="cls-6" d="M-23273.174-3298.76s21.758,12.693,20.109,16.915-1.242,10.989-3.812,10.4-3.156.168-4.023,0,.289,21.571,6.6,37.368c-9.566,1.667-34.137,4.493-36.6.435-1.375-6.015-7.316-53.551,13.117-65.434C-23272.709-3299.88-23273.174-3298.76-23273.174-3298.76Z" transform="translate(23292.762 3326.892)"/>
        <path id="路径_1913" data-name="路径 1913" class="cls-7" d="M-23255.672-3323.067s-1.387,3.3,3.023,7.924c1.027,1.272-3.5.742-3.609.546.234,3.4-2.3,3.767-2.637,3.767-.352,0-1.422,2.283-1.422,2.283l-5.953-1.171.469-10.812Z" transform="translate(23281.332 3337.685)"/>
        <path id="路径_1912" data-name="路径 1912" class="cls-8" d="M-23263.391-3320.689c1.527.7-1.172-7.747,9.594-5.84.523.12,7.1.669-4.234-4.744-3.088-1.6-5.777-3.125-7.8-2.831-3.328.463-3.982,5.028-4.242,6.629-.379,2.361.344,8.251,2.887,10.757C-23266.187-3315.805-23269.047-3325.235-23263.391-3320.689Z" transform="translate(23283.014 3342.02)"/>
        <path id="路径_1914" data-name="路径 1914" class="cls-9" d="M-23259.469-3299.285" transform="translate(23278.398 3327.424)"/>
        <path id="路径_1918" data-name="路径 1918" class="cls-10" d="M-23242.543-3105.889s-5.77-23.168-7.586-24.763-3.113-2.9-3.4-2.9,9.762,29.522,8.746,32.638C-23243.184-3104.347-23242.543-3105.889-23242.543-3105.889Z" transform="translate(23275.838 3255.914)"/>
        <path id="路径_1922" data-name="路径 1922" class="cls-4" d="M9.234,13.2C8.021,12.43.272,6.466.016,4.022S2.614,0,2.614,0s1.5,4.387,4.8,3.959C8.741,4.338,10.448,13.966,9.234,13.2Z" transform="matrix(0.799, -0.602, 0.602, 0.799, 41.387, 178.588)"/>
      </g>
    </g>
    <g id="组_2715" data-name="组 2715" transform="translate(0 39)">
      <g id="组_2714" data-name="组 2714" transform="translate(47.177 548.159)">
        <g id="组_2709" data-name="组 2709" transform="matrix(0.966, 0.259, -0.259, 0.966, 15.023, 0)">
          <path id="路径_1782" data-name="路径 1782" class="cls-11" d="M18.265,47.624s-10.29-13.1-9.457-26.091A25.247,25.247,0,0,0,4.836,6.072,42.953,42.953,0,0,0,0,0" transform="translate(26.941 10.422)"/>
          <path id="路径_1783" data-name="路径 1783" class="cls-12" d="M6.837,2.232c.727,1.818-.463,8.405-.463,8.405S.977,6.68.253,4.858A3.544,3.544,0,1,1,6.837,2.232Z" transform="translate(20.477 0)"/>
          <path id="路径_1784" data-name="路径 1784" class="cls-12" d="M6.984,4.235c-.378,1.92-4.942,6.8-4.942,6.8s-2.379-6.255-2-8.179A3.546,3.546,0,1,1,7,4.235Z" transform="translate(29.844 5.9)"/>
          <path id="路径_1785" data-name="路径 1785" class="cls-12" d="M7.717,5.9C6.418,7.364,0,9.267,0,9.267s1.1-6.6,2.4-8.07A3.546,3.546,0,0,1,7.717,5.9Z" transform="translate(35.794 21.548)"/>
          <path id="路径_1786" data-name="路径 1786" class="cls-12" d="M7.032,5.411C6,7.078,0,10.039,0,10.039S-.028,3.332,1,1.68A3.545,3.545,0,1,1,7.032,5.411Z" transform="translate(38.544 36.258)"/>
          <path id="路径_1787" data-name="路径 1787" class="cls-12" d="M2.194,6.81c1.811.745,8.412-.353,8.412-.353S6.724,1.014,4.9.269a3.546,3.546,0,0,0-2.7,6.555Z" transform="translate(22.878 13.242)"/>
          <path id="路径_1788" data-name="路径 1788" class="cls-12" d="M3.235,7.077c1.949.173,7.914-2.863,7.914-2.863S5.8.187,3.853.014a3.544,3.544,0,1,0-.618,7.06Z" transform="translate(24.479 29.58)"/>
          <path id="路径_1789" data-name="路径 1789" class="cls-12" d="M2.645,6.976c1.9.5,8.289-1.486,8.289-1.486S6.344.615,4.449.117a3.546,3.546,0,0,0-1.8,6.859Z" transform="translate(29.901 45.474)"/>
          <path id="路径_1797" data-name="路径 1797" class="cls-11" d="M35.989,36.134s-14.717-7.8-19.221-20.015A25.255,25.255,0,0,0,6.883,3.59,42.5,42.5,0,0,0,0,0" transform="translate(9.132 21.365)"/>
          <path id="路径_1798" data-name="路径 1798" class="cls-12" d="M6.026,1c1.412,1.37,2.983,7.872,2.983,7.872S2.471,7.444,1.07,6.077A3.541,3.541,0,1,1,6.012,1Z" transform="translate(0 12.679)"/>
          <path id="路径_1799" data-name="路径 1799" class="cls-12" d="M6.993,2.764C7.424,4.674,5.228,11,5.228,11S.519,6.237.088,4.328A3.545,3.545,0,0,1,7,2.764Z" transform="translate(10.946 14.308)"/>
          <path id="路径_1800" data-name="路径 1800" class="cls-12" d="M6.878,4.618c-.59,1.867-5.687,6.209-5.687,6.209S-.472,4.343.132,2.475a3.546,3.546,0,1,1,6.76,2.143Z" transform="translate(24.208 25.593)"/>
          <path id="路径_1801" data-name="路径 1801" class="cls-12" d="M7.046,4.03c-.268,1.942-4.557,7.081-4.557,7.081S-.247,5,.018,3.063a3.546,3.546,0,1,1,7.025.967Z" transform="translate(31.737 38.35)"/>
          <path id="路径_1802" data-name="路径 1802" class="cls-12" d="M3.637,7.089C5.6,7.04,11.181,3.347,11.181,3.347S5.409-.049,3.453,0a3.545,3.545,0,0,0,.184,7.088Z" transform="translate(7.581 23.804)"/>
          <path id="路径_1803" data-name="路径 1803" class="cls-12" d="M4.693,6.863c1.853-.632,6.079-5.825,6.079-5.825S4.251-.48,2.4.155A3.544,3.544,0,1,0,4.693,6.863Z" transform="translate(15.706 38.147)"/>
          <path id="路径_1804" data-name="路径 1804" class="cls-12" d="M4.128,7.026C6.059,6.715,11.1,2.31,11.1,2.31S4.93-.285,2.981.026a3.545,3.545,0,1,0,1.13,7Z" transform="translate(27.103 50.487)"/>
        </g>
        <g id="组_2712" data-name="组 2712" transform="translate(20.579 59.899)">
          <path id="矩形_2863" data-name="矩形 2863" class="cls-13" d="M0,0H32.965a0,0,0,0,1,0,0V2.747A16.482,16.482,0,0,1,16.482,19.229h0A16.482,16.482,0,0,1,0,2.747V0A0,0,0,0,1,0,0Z"/>
          <path id="矩形_2864" data-name="矩形 2864" class="cls-13" d="M0,0H17.4a0,0,0,0,1,0,0V2.289a8.7,8.7,0,0,1-8.7,8.7h0A8.7,8.7,0,0,1,0,2.289V0A0,0,0,0,1,0,0Z" transform="translate(25.639 30.218) rotate(180)"/>
        </g>
      </g>
    </g>
  </g>
</svg>
