<svg xmlns="http://www.w3.org/2000/svg" xmlns:xlink="http://www.w3.org/1999/xlink" width="280.115" height="179.6" viewBox="0 0 280.115 179.6">
  <defs>
    <style>
      .cls-1, .cls-10, .cls-11, .cls-12, .cls-2, .cls-3, .cls-4, .cls-5, .cls-6, .cls-7, .cls-8, .cls-9 {
        fill-rule: evenodd;
      }

      .cls-1 {
        fill: url(#linear-gradient);
      }

      .cls-2 {
        fill: url(#linear-gradient-4);
      }

      .cls-3 {
        fill: #fefefe;
      }

      .cls-4 {
        fill: url(#linear-gradient-5);
      }

      .cls-5 {
        fill: #fff;
      }

      .cls-6 {
        fill: url(#linear-gradient-7);
      }

      .cls-7 {
        fill: url(#linear-gradient-11);
      }

      .cls-8 {
        fill: url(#linear-gradient-12);
      }

      .cls-9 {
        fill: url(#linear-gradient-13);
      }

      .cls-10 {
        fill: url(#linear-gradient-15);
      }

      .cls-11 {
        fill: url(#linear-gradient-16);
      }

      .cls-12 {
        fill: url(#linear-gradient-17);
      }
    </style>
    <linearGradient id="linear-gradient" x1="0.926" y1="0.5" x2="-0.105" y2="0.5" gradientUnits="objectBoundingBox">
      <stop offset="0" stop-color="#fefefe"/>
      <stop offset="1" stop-color="#fff" stop-opacity="0"/>
    </linearGradient>
    <linearGradient id="linear-gradient-4" x1="0.32" y1="0.5" x2="0.96" y2="0.5" gradientUnits="objectBoundingBox">
      <stop offset="0" stop-color="#fefefe"/>
      <stop offset="1" stop-color="#fff" stop-opacity="0.631"/>
    </linearGradient>
    <linearGradient id="linear-gradient-5" x1="1" y1="0.5" x2="-0.036" y2="0.5" gradientUnits="objectBoundingBox">
      <stop offset="0" stop-color="#fff"/>
      <stop offset="1" stop-color="#fff" stop-opacity="0"/>
    </linearGradient>
    <linearGradient id="linear-gradient-7" x1="0.976" y1="0.5" x2="0" y2="0.5" xlink:href="#linear-gradient"/>
    <linearGradient id="linear-gradient-11" x1="0.067" y1="0.5" x2="1" y2="0.5" xlink:href="#linear-gradient"/>
    <linearGradient id="linear-gradient-12" x1="0.049" y1="0.097" x2="0.782" y2="0.771" gradientUnits="objectBoundingBox">
      <stop offset="0" stop-color="#fefefe" stop-opacity="0"/>
      <stop offset="1" stop-color="#fff"/>
    </linearGradient>
    <linearGradient id="linear-gradient-13" x1="0.5" x2="0.5" y2="1" gradientUnits="objectBoundingBox">
      <stop offset="0" stop-color="#fff" stop-opacity="0"/>
      <stop offset="1" stop-color="#fff"/>
    </linearGradient>
    <linearGradient id="linear-gradient-15" x1="0" y1="0" x2="0.844" y2="0.698" xlink:href="#linear-gradient-12"/>
    <linearGradient id="linear-gradient-16" x2="0.093" xlink:href="#linear-gradient-5"/>
    <linearGradient id="linear-gradient-17" x1="0.5" x2="0.542" y2="0.812" gradientUnits="objectBoundingBox">
      <stop offset="0" stop-color="#fff" stop-opacity="0.149"/>
      <stop offset="1" stop-color="#fff"/>
    </linearGradient>
  </defs>
  <g id="组_2740" data-name="组 2740" transform="translate(-234.885 -111.563)">
    <g id="组_2732" data-name="组 2732" transform="translate(234.884 111.563)">
      <g id="组_2725" data-name="组 2725" transform="translate(0 0)">
        <path id="路径_1932" data-name="路径 1932" class="cls-1" d="M100.251,116.776H65.2l.973-8.264h35.055Z" transform="translate(-39.753 -65.97)"/>
        <path id="路径_1933" data-name="路径 1933" class="cls-1" d="M100.251,149.776H65.2l.973-8.264h35.055Z" transform="translate(-42.497 -86.031)"/>
        <path id="路径_1934" data-name="路径 1934" class="cls-1" d="M140.794,36.28H94.654l5.756-9.659H142.5Z" transform="translate(-57.661 -16.186)"/>
        <path id="路径_1936" data-name="路径 1936" class="cls-2" d="M95.661,36.28h27.283l-3.4-9.659H94.654Z" transform="translate(-85.487 -16.186)"/>
        <path id="路径_1935" data-name="路径 1935" class="cls-3" d="M43.442,10.44c1.506-2.674,2.84-5.347,4.174-8.021L37.434,0a103.4,103.4,0,0,1-5.2,10.435L26.216,20.1C19.277,30.1,10.522,39.159.3,45.283a44.825,44.825,0,0,1,5.343,7.848,81.812,81.812,0,0,0,13.163-10.09L12.193,80.557H22.37l2.9-16.472,1.505-8.538,3.467-19.664H61.38l-.974,5.52L58.9,49.94l-.988,5.606-1.505,8.538L55.5,69.259c-.213,1.207-.806,1.638-2.288,1.725-1.466,0-6.468,0-10.821-.259a38.078,38.078,0,0,1,1.356,9.918c6.986,0,11.917-.086,15.569-1.725,3.81-1.552,5.245-4.312,6.142-9.4l7.511-42.6H33.035c1.689-2.243,3.206-4.485,4.651-6.813" transform="translate(-0.301 -0.005)"/>
      </g>
      <g id="组_2726" data-name="组 2726" transform="translate(95.899 3.377)">
        <path id="路径_1937" data-name="路径 1937" class="cls-3" d="M35.137,11.08c-3.223-2.739-9.942-6.2-15-8.136L14.25,9.388a63.537,63.537,0,0,1,14.629,8.861Zm-1.524,9.1c-9.131,2.9-18.583,5.8-24.909,7.411l1.352,8.78c7-2.256,15.65-5.155,23.719-7.975ZM37.02,49.746C32.857,59.654,26.759,65.454.741,68.193A24.723,24.723,0,0,1,3.59,76.248c28.97-3.947,37.484-12.486,42.774-26.5Zm2.216,15.305A202.231,202.231,0,0,1,66.749,75.765l7.3-7.572c-6.535-3.142-19.287-7.572-28.058-9.908ZM54.22,14.786C50.8,21.874,45.162,28.238,31.137,31.943a19.153,19.153,0,0,1,3.692,6.928c11.23-3.383,18.2-8.217,22.946-14.1,3.5,6.2,9.213,10.794,16.99,13.291a35.033,35.033,0,0,1,6.879-7.491c-9.311-2.014-16.112-6.847-19.055-13.452.369-.725.753-1.531,1.137-2.336" transform="translate(-0.741 -1.866)"/>
        <path id="路径_1938" data-name="路径 1938" class="cls-4" d="M54,102h46.508v7.324H54Z" transform="translate(-34.496 -64.647)"/>
        <path id="路径_1939" data-name="路径 1939" class="cls-3" d="M36.68,101.1l-3.892,22.071h9.425L46.049,101Z" transform="translate(-21.052 -64.013)"/>
        <path id="路径_1940" data-name="路径 1940" class="cls-3" d="M161.313,102.1l-3.525,20.607h9.425L170.683,102Z" transform="translate(-100.277 -64.647)"/>
        <path id="路径_1941" data-name="路径 1941" class="cls-5" d="M103.282,0l8.789,1.465s-7.222,14.341-17.944,20.874c-.972-1-5.127-5.493-5.127-5.493S101.593,7.337,103.282,0Z" transform="translate(-56.679)"/>
        <path id="路径_1942" data-name="路径 1942" class="cls-4" d="M121,22h38.451v6.592H121Z" transform="translate(-76.961 -13.944)"/>
        <path id="路径_1943" data-name="路径 1943" class="cls-5" d="M205.423,19,197,31.817l7.69,2.93,8.423-13.55Z" transform="translate(-125.129 -12.042)"/>
      </g>
      <g id="组_2727" data-name="组 2727" transform="translate(195.174 3.377)">
        <path id="路径_1944" data-name="路径 1944" class="cls-3" d="M33.071,8.648C30.4,6.476,24.732,3.017,21.107.765l-6.69,6.918A119.223,119.223,0,0,1,25.932,16.29ZM25.48,29.8A125.218,125.218,0,0,0,13.35,22.4l-6.6,6.837c3.744,2.494,9.153,6.033,11.571,8.286ZM16.5,43.319A284.845,284.845,0,0,1,.686,69.141l7.861,5.148c4.943-7.964,10.341-17.134,14.915-25.741Zm23.888,8.688a72.735,72.735,0,0,1-10.824,14.4,39.853,39.853,0,0,1,6.659,4.666A130.888,130.888,0,0,0,48.4,54.5Zm3.564-47.5-8.6-.123-3.914,22.2c-2.3,13.032-6.321,31.292-17.515,43.68a31.688,31.688,0,0,1,7.137,5.148c11.927-13.353,17.119-34.59,19.63-48.829l2.4-13.595m9.2,35.877L49.263,66c-.156.885-.52,1.126-1.405,1.126-.965,0-4.183,0-6.984-.08a33.338,33.338,0,0,1,1.047,8.205c4.893.08,8.7-.08,11.664-1.368,3.042-1.287,4.083-3.539,4.806-7.642L61.455,48.87m1.288,5.47A131.2,131.2,0,0,1,67.16,70.348l9.529-3.861C75.695,62.545,73.3,56.029,71.581,51.2Z" transform="translate(-0.686 -0.765)"/>
        <path id="路径_1945" data-name="路径 1945" class="cls-6" d="M92,18.2l50.031.073,1.517-8.607H93.272" transform="translate(-58.607 -6.409)"/>
        <path id="路径_1946" data-name="路径 1946" class="cls-6" d="M117,121.533l32.188.056,1.088-6.584H117.911" transform="translate(-74.464 -73.228)"/>
        <path id="路径_1947" data-name="路径 1947" class="cls-6" d="M117,92.533l32.188.056,1.088-6.584H117.911" transform="translate(-74.464 -54.833)"/>
        <path id="路径_1948" data-name="路径 1948" class="cls-6" d="M119,59.533l35.276.056,1.192-6.584H120" transform="translate(-75.733 -33.901)"/>
        <path id="路径_1949" data-name="路径 1949" class="cls-3" d="M186.023,53,182,82.256h8.411l5.017-28.978Z" transform="translate(-115.694 -33.898)"/>
        <path id="路径_1950" data-name="路径 1950" class="cls-3" d="M114.023,52.847,110,82.1h8.411l5.017-29.344Z" transform="translate(-70.024 -33.745)"/>
      </g>
    </g>
    <g id="组_2733" data-name="组 2733" transform="translate(241.066 210.119)">
      <g id="组_2729" data-name="组 2729" transform="translate(0 9.001)">
        <path id="路径_1951" data-name="路径 1951" class="cls-7" d="M573.5,422.98H551.348l-1.422,8.064h16.833" transform="translate(-548.354 -384.147)"/>
        <path id="路径_1953" data-name="路径 1953" class="cls-8" d="M654.175,479.545c8.092,2.505,15.18,4.932,20.5,7.2l8.643-7.281c-5.149-1.879-11.652-4.071-18.966-6.107" transform="translate(-615.502 -416.597)"/>
        <path id="路径_1954" data-name="路径 1954" class="cls-3" d="M592.881,360.757a33.014,33.014,0,0,1-8.3,7.125c-4.269-1.1-8.774-2.192-13.214-3.21a49.973,49.973,0,0,0,3.509-3.915Zm-27.494-27.011h8.221l-1.284,7.281H564.1Zm19.074-11.822h8.847l-.787,4.463h-8.847Zm24.926,11.822-1.284,7.281h-9.4l1.284-7.281Zm-28.294,7.281,1.284-7.281h8.847l-1.284,7.281Zm13.259,29.595a46.323,46.323,0,0,0,8.864-9.865h14.8l1.422-8.064H581.463c.833-1.174,1.731-2.271,2.487-3.445l-3.749-.939h35.937L620,326.386H601.289l.787-4.463h21.218l1.422-8.064H556.522l-1.422,8.064h20.591l-.787,4.463h-16.99l-3.865,21.922h19.886c-1.045,1.488-2.155,2.9-3.278,4.384l-.064.007-6.788,8.057h.107c-2.915,3.21-5.775,6.107-8.394,8.534,5.586,1.174,10.911,2.505,16.078,3.836-7.221,1.879-15.843,2.819-26.09,3.21a21.686,21.686,0,0,1,2.115,7.986c15.253-1.253,27.2-3.288,36.557-7.516" transform="translate(-545.507 -313.859)"/>
      </g>
      <g id="组_2730" data-name="组 2730" transform="translate(89.626 0)">
        <path id="路径_1955" data-name="路径 1955" class="cls-3" d="M33.663,18.754H44.007l.274.108h10l.115-.108,10.175-.039-1.266,7.157A71.821,71.821,0,0,1,74.835,40.492l8.674-5.557A63.388,63.388,0,0,0,71.347,21l-7.98,4.531,1.176-6.668h21.8l1.583-8.976H58.431A66.588,66.588,0,0,0,55.085.739L44.847,3.047c.75,2.052,1.595,4.531,2.214,6.839H14.148l-1.583,8.976H33.937Zm-11.116,2.16A48.634,48.634,0,0,1,9.258,35.191a65.608,65.608,0,0,1,6.931,5.3A67.651,67.651,0,0,0,31.273,23.308Zm35,32.315a61.047,61.047,0,0,1-15.854,9.917A36.954,36.954,0,0,1,29.5,53.23ZM51.621,67.421A67.614,67.614,0,0,0,73.86,48.442L68.147,44l-1.685.342H12.946L11.378,53.23H17.79A47.346,47.346,0,0,0,30.279,67.25,159.287,159.287,0,0,1,.746,72.807a28.685,28.685,0,0,1,3.2,8.976A159.089,159.089,0,0,0,39.6,73.063" transform="translate(-0.746 -0.739)"/>
        <path id="路径_1956" data-name="路径 1956" class="cls-9" d="M84.829,42,79,61.818h9.715l5.052-19.429Z" transform="translate(-48.592 -25.967)"/>
        <path id="路径_1957" data-name="路径 1957" class="cls-9" d="M126.829,42,121,61.818h9.715l5.052-19.429Z" transform="translate(-74.271 -25.967)"/>
        <path id="路径_1958" data-name="路径 1958" class="cls-10" d="M100.73,177.982c8.892,4.36,19.679,7.181,32.4,8.72a49.54,49.54,0,0,1,7.3-8.891,118.648,118.648,0,0,1-27.674-5.471" transform="translate(-61.878 -105.658)"/>
      </g>
      <g id="组_2731" data-name="组 2731" transform="translate(187.459 9.09)">
        <path id="路径_1959" data-name="路径 1959" class="cls-11" d="M115,0h39.265L152.8,8.073H115Z" transform="translate(-73.134)"/>
        <path id="路径_1960" data-name="路径 1960" class="cls-3" d="M51.951,0H73.6l-8.53,42.81H74.6L82.142.022H43.068L35.524,42.81h9.042ZM32.011,47.169c-3.21.807-6.34,1.615-9.55,2.422L25.393,32.96H32.9l1.552-8.8H26.944L29.45,9.952h9.2L40.233.99H11.9l-1.58,8.961h9.849L17.66,24.16H9.022L7.47,32.96h8.638L12.764,51.932C8.381,52.982,4.254,53.951.911,54.6l.234,9.2C9.873,61.459,21.19,58.633,31.7,55.808Zm25.192-4.6A70.877,70.877,0,0,0,62.1,26.259l2.291-13h-8.88L53.259,26.017c-2.192,12.433-7.271,28.418-29.67,39.155a24.507,24.507,0,0,1,4.779,6.781,58.669,58.669,0,0,0,23.647-20.1M51.25,70.178H63.96c8.154,0,10.181-3.714,13.289-16.308a20.343,20.343,0,0,1-6.9-3.471c-2.092,10.5-2.99,12.836-5.089,12.836,0,0-8.807.4-14.015.5" transform="translate(-0.911)"/>
        <path id="路径_1961" data-name="路径 1961" class="cls-12" d="M138,103.541V129.6h10.275L146.44,94Z" transform="translate(-87.694 -59.506)"/>
      </g>
    </g>
  </g>
</svg>
